<svg version="1.1" id="Layer_1" xmlns="http://www.w3.org/2000/svg" xmlns:xlink="http://www.w3.org/1999/xlink" x="0px" y="0px"
	 width="100%" viewBox="0 0 1324 917" enable-background="new 0 0 1324 917" xml:space="preserve">
<path fill="#80CC28" opacity="1.000000" stroke="none" 
	d="
M186.000000,918.000000 
	C169.979111,918.000000 153.958206,918.000000 137.681015,917.628479 
	C136.919418,916.864441 136.459457,916.215393 135.902206,916.116943 
	C122.054680,913.670410 109.131668,908.753723 97.571175,900.787903 
	C81.034248,889.393005 68.405144,874.980835 63.876015,854.692749 
	C59.261623,834.022949 54.363018,813.414978 49.921913,792.708496 
	C45.718201,773.108948 41.870106,753.431702 38.012756,733.759766 
	C35.563915,721.271118 33.216175,708.757690 31.132458,696.203979 
	C29.204437,684.588379 27.672617,672.906616 25.995235,661.249817 
	C24.572618,651.363586 23.171221,641.474304 21.796926,631.581238 
	C20.177155,619.921082 18.457006,608.272278 17.041553,596.586975 
	C15.817088,586.478455 14.956441,576.325928 13.937685,566.192566 
	C12.623277,553.118469 11.236724,540.051025 10.024765,526.967346 
	C9.204167,518.108643 8.630538,509.227020 7.946762,500.355621 
	C6.630577,483.279175 5.139309,466.213806 4.062441,449.122284 
	C3.385517,438.378510 3.378978,427.593445 2.913210,416.833771 
	C2.871204,415.863373 1.665359,414.943390 1.000001,414.000000 
	C1.000000,348.312439 1.000000,282.624878 1.420772,216.610016 
	C2.226030,215.269379 2.912711,214.266647 2.948746,213.241043 
	C3.356325,201.640854 3.643125,190.036438 4.023047,178.435150 
	C4.076060,176.816376 4.366998,175.189880 4.697813,173.598129 
	C7.738326,158.968353 9.796064,144.249634 10.122000,129.258453 
	C10.263330,122.758125 11.259934,116.175034 12.714836,109.823494 
	C17.188072,90.295097 27.980242,74.477539 42.498447,61.003712 
	C57.704220,46.891781 75.874802,38.533386 96.081779,35.199234 
	C109.993530,32.903801 124.185059,32.269871 138.263351,31.027086 
	C154.328232,29.608936 170.403839,28.309795 186.479233,27.014257 
	C199.449539,25.968962 212.423981,24.971909 225.401154,24.015455 
	C239.538086,22.973528 253.679565,21.992319 267.820435,21.004480 
	C282.291321,19.993589 296.759583,18.938665 311.236786,18.027058 
	C328.365570,16.948488 345.502502,15.998657 362.636353,15.000736 
	C374.176147,14.328628 385.714966,13.638018 397.257355,13.013601 
	C410.292999,12.308405 423.330414,11.630791 436.370270,11.009386 
	C451.239166,10.300822 466.111023,9.653506 480.982697,9.005319 
	C496.683563,8.320993 512.383850,7.617866 528.087830,7.012511 
	C546.786255,6.291728 565.487183,5.630990 584.189270,5.012078 
	C596.287354,4.611714 608.387817,4.232839 620.490295,4.021079 
	C643.753296,3.614039 667.018494,3.331124 690.282837,3.001529 
	C692.281982,2.973206 694.302490,3.139486 696.269287,2.881387 
	C696.917297,2.796348 697.427063,1.657162 698.000000,0.999997 
	C832.020935,1.000000 966.041809,1.000000 1100.372925,1.417264 
	C1101.863525,2.222093 1103.036743,2.923510 1104.225342,2.950149 
	C1122.152588,3.351942 1140.081055,3.712543 1158.010986,3.977928 
	C1166.338623,4.101188 1174.682373,3.712806 1182.995605,4.079929 
	C1191.194824,4.442017 1199.725708,4.204014 1207.483521,6.423205 
	C1236.607422,14.754416 1255.341064,34.057934 1262.846680,63.407177 
	C1265.869019,75.225922 1267.026489,87.520973 1269.044678,99.597252 
	C1271.684204,115.390549 1274.516602,131.154282 1276.929565,146.982025 
	C1279.199341,161.871063 1280.961182,176.836746 1283.074585,191.750580 
	C1285.643188,209.877167 1288.488525,227.965469 1290.944580,246.106842 
	C1292.858154,260.240173 1294.295044,274.437378 1296.061279,288.591522 
	C1297.967773,303.869324 1300.172363,319.111298 1301.946289,334.403809 
	C1303.517334,347.946838 1304.586426,361.547302 1306.037720,375.105225 
	C1307.941162,392.887909 1310.101685,410.643311 1311.963623,428.430115 
	C1313.451416,442.643585 1314.722900,456.880798 1315.972656,471.117828 
	C1317.382812,487.183075 1318.803223,503.249756 1319.957397,519.334595 
	C1321.137695,535.786133 1321.965454,552.262817 1323.079712,568.719543 
	C1323.156372,569.851135 1324.334229,570.908264 1325.000000,572.000000 
	C1325.000000,588.020874 1325.000000,604.041809 1324.658936,620.266357 
	C1323.908936,620.968262 1323.268555,621.407715 1323.125000,621.973389 
	C1318.054932,641.944031 1306.115845,656.725342 1288.937012,667.651306 
	C1287.645996,668.472351 1286.505493,670.095703 1286.051880,671.577759 
	C1282.588867,682.889771 1276.894653,692.918152 1268.885010,701.569580 
	C1257.480469,713.887817 1242.916748,720.777344 1226.983032,724.934082 
	C1197.686523,732.576965 1168.362305,740.119751 1138.984497,747.442871 
	C1100.252930,757.097656 1061.489136,766.626709 1022.681091,775.968689 
	C995.603821,782.486694 968.436646,788.632202 941.294861,794.880371 
	C927.797729,797.987488 914.298218,801.097351 900.745361,803.947144 
	C877.756409,808.781128 854.728943,813.432800 831.709045,818.118896 
	C810.455811,822.445374 789.196899,826.744568 767.929810,831.002502 
	C751.464050,834.299255 734.995178,837.583740 718.503113,840.745544 
	C701.998047,843.909851 685.473999,846.978455 668.936890,849.971130 
	C654.151855,852.646729 639.345337,855.205933 624.534424,857.735168 
	C610.038086,860.210632 595.525513,862.591431 581.017578,864.998657 
	C569.578613,866.896667 558.144043,868.823059 546.692505,870.642090 
	C535.061584,872.489624 523.411560,874.215942 511.771393,876.004822 
	C501.752167,877.544556 491.742615,879.149597 481.714844,880.631226 
	C469.254791,882.472290 456.786407,884.259766 444.310272,885.988464 
	C433.762054,887.450012 423.194641,888.772339 412.641205,890.197266 
	C400.960754,891.774414 389.295319,893.465515 377.606842,894.979675 
	C368.656128,896.139221 359.672852,897.045959 350.716614,898.165405 
	C340.968994,899.383789 331.245117,900.794128 321.493317,901.975708 
	C314.650635,902.804749 307.769592,903.313538 300.921570,904.103149 
	C290.181763,905.341553 279.462891,906.763123 268.720581,907.978088 
	C261.535828,908.790833 254.320908,909.332458 247.128265,910.079956 
	C234.885422,911.352417 222.654221,912.737976 210.408875,913.984985 
	C202.885010,914.751282 195.339142,915.302979 187.818863,916.099365 
	C187.152954,916.169922 186.603531,917.340393 186.000000,918.000000 
M726.420166,808.943054 
	C727.880798,808.614807 729.340271,808.281372 730.802246,807.958984 
	C829.316956,786.235962 927.382629,762.621277 1024.620483,735.769104 
	C1100.174561,714.904846 1175.422119,692.916504 1250.659180,670.925232 
	C1285.763184,660.664673 1306.482056,629.580627 1302.836426,594.250488 
	C1300.734131,573.876770 1298.553467,553.496155 1295.711304,533.216309 
	C1286.583252,468.086853 1277.823486,402.894196 1267.632935,337.928101 
	C1254.061279,251.407944 1237.322510,165.446686 1218.868286,79.831726 
	C1211.554077,45.898876 1181.386475,17.433685 1143.291626,18.842947 
	C1123.818604,19.563326 1104.294922,18.782101 1084.805542,19.207848 
	C982.854126,21.434977 880.902466,23.678843 778.959534,26.257820 
	C746.484680,27.079376 714.022461,28.684456 681.579163,30.397808 
	C631.006897,33.068558 580.445129,35.967697 529.899231,39.097279 
	C495.483337,41.228161 461.086945,43.724323 426.709625,46.412579 
	C393.000061,49.048618 359.313324,51.998833 325.639374,55.061382 
	C293.128967,58.018112 260.626465,61.091606 228.159302,64.485214 
	C193.542389,68.103531 158.945404,71.945518 124.392303,76.124649 
	C110.550888,77.798729 96.401398,79.167778 83.169762,83.216835 
	C44.972046,94.905876 17.307940,131.603622 17.006596,168.973267 
	C16.416409,242.161880 18.928507,315.234192 24.777281,388.202576 
	C29.623577,448.664185 36.710037,508.851715 46.257236,568.738647 
	C60.766399,659.750671 80.734047,749.556824 106.474510,838.068115 
	C109.854294,849.689880 115.632446,859.913879 124.114227,868.416931 
	C149.037582,893.402893 179.756287,901.157104 213.947678,897.622131 
	C228.683884,896.098511 243.372528,894.044800 258.038727,891.926880 
	C304.344788,885.239563 350.717621,878.949951 396.899872,871.487000 
	C448.008270,863.228088 499.060333,854.500610 549.907654,844.778076 
	C608.598511,833.555786 667.038818,821.023865 726.420166,808.943054 
z"/>
<path fill="#000000" opacity="1.000000" stroke="none" 
	d="
M186.468658,918.000000 
	C186.603531,917.340393 187.152954,916.169922 187.818863,916.099365 
	C195.339142,915.302979 202.885010,914.751282 210.408875,913.984985 
	C222.654221,912.737976 234.885422,911.352417 247.128265,910.079956 
	C254.320908,909.332458 261.535828,908.790833 268.720581,907.978088 
	C279.462891,906.763123 290.181763,905.341553 300.921570,904.103149 
	C307.769592,903.313538 314.650635,902.804749 321.493317,901.975708 
	C331.245117,900.794128 340.968994,899.383789 350.716614,898.165405 
	C359.672852,897.045959 368.656128,896.139221 377.606842,894.979675 
	C389.295319,893.465515 400.960754,891.774414 412.641205,890.197266 
	C423.194641,888.772339 433.762054,887.450012 444.310272,885.988464 
	C456.786407,884.259766 469.254791,882.472290 481.714844,880.631226 
	C491.742615,879.149597 501.752167,877.544556 511.771393,876.004822 
	C523.411560,874.215942 535.061584,872.489624 546.692505,870.642090 
	C558.144043,868.823059 569.578613,866.896667 581.017578,864.998657 
	C595.525513,862.591431 610.038086,860.210632 624.534424,857.735168 
	C639.345337,855.205933 654.151855,852.646729 668.936890,849.971130 
	C685.473999,846.978455 701.998047,843.909851 718.503113,840.745544 
	C734.995178,837.583740 751.464050,834.299255 767.929810,831.002502 
	C789.196899,826.744568 810.455811,822.445374 831.709045,818.118896 
	C854.728943,813.432800 877.756409,808.781128 900.745361,803.947144 
	C914.298218,801.097351 927.797729,797.987488 941.294861,794.880371 
	C968.436646,788.632202 995.603821,782.486694 1022.681091,775.968689 
	C1061.489136,766.626709 1100.252930,757.097656 1138.984497,747.442871 
	C1168.362305,740.119751 1197.686523,732.576965 1226.983032,724.934082 
	C1242.916748,720.777344 1257.480469,713.887817 1268.885010,701.569580 
	C1276.894653,692.918152 1282.588867,682.889771 1286.051880,671.577759 
	C1286.505493,670.095703 1287.645996,668.472351 1288.937012,667.651306 
	C1306.115845,656.725342 1318.054932,641.944031 1323.125000,621.973389 
	C1323.268555,621.407715 1323.908936,620.968262 1324.658936,620.734985 
	C1325.000000,719.969849 1325.000000,818.939697 1325.000000,918.000000 
	C945.645752,918.000000 566.291565,918.000000 186.468658,918.000000 
z"/>
<path fill="#000000" opacity="1.000000" stroke="none" 
	d="
M1325.000000,571.531372 
	C1324.334229,570.908264 1323.156372,569.851135 1323.079712,568.719543 
	C1321.965454,552.262817 1321.137695,535.786133 1319.957397,519.334595 
	C1318.803223,503.249756 1317.382812,487.183075 1315.972656,471.117828 
	C1314.722900,456.880798 1313.451416,442.643585 1311.963623,428.430115 
	C1310.101685,410.643311 1307.941162,392.887909 1306.037720,375.105225 
	C1304.586426,361.547302 1303.517334,347.946838 1301.946289,334.403809 
	C1300.172363,319.111298 1297.967773,303.869324 1296.061279,288.591522 
	C1294.295044,274.437378 1292.858154,260.240173 1290.944580,246.106842 
	C1288.488525,227.965469 1285.643188,209.877167 1283.074585,191.750580 
	C1280.961182,176.836746 1279.199341,161.871063 1276.929565,146.982025 
	C1274.516602,131.154282 1271.684204,115.390549 1269.044678,99.597252 
	C1267.026489,87.520973 1265.869019,75.225922 1262.846680,63.407177 
	C1255.341064,34.057934 1236.607422,14.754416 1207.483521,6.423205 
	C1199.725708,4.204014 1191.194824,4.442017 1182.995605,4.079929 
	C1174.682373,3.712806 1166.338623,4.101188 1158.010986,3.977928 
	C1140.081055,3.712543 1122.152588,3.351942 1104.225342,2.950149 
	C1103.036743,2.923510 1101.863525,2.222093 1100.841553,1.417264 
	C1175.625610,1.000000 1250.251099,1.000000 1325.000000,1.000000 
	C1325.000000,191.020874 1325.000000,381.041779 1325.000000,571.531372 
z"/>
<path fill="#000000" opacity="1.000000" stroke="none" 
	d="
M1.000001,414.468658 
	C1.665359,414.943390 2.871204,415.863373 2.913210,416.833771 
	C3.378978,427.593445 3.385517,438.378510 4.062441,449.122284 
	C5.139309,466.213806 6.630577,483.279175 7.946762,500.355621 
	C8.630538,509.227020 9.204167,518.108643 10.024765,526.967346 
	C11.236724,540.051025 12.623277,553.118469 13.937685,566.192566 
	C14.956441,576.325928 15.817088,586.478455 17.041553,596.586975 
	C18.457006,608.272278 20.177155,619.921082 21.796926,631.581238 
	C23.171221,641.474304 24.572618,651.363586 25.995235,661.249817 
	C27.672617,672.906616 29.204437,684.588379 31.132458,696.203979 
	C33.216175,708.757690 35.563915,721.271118 38.012756,733.759766 
	C41.870106,753.431702 45.718201,773.108948 49.921913,792.708496 
	C54.363018,813.414978 59.261623,834.022949 63.876015,854.692749 
	C68.405144,874.980835 81.034248,889.393005 97.571175,900.787903 
	C109.131668,908.753723 122.054680,913.670410 135.902206,916.116943 
	C136.459457,916.215393 136.919418,916.864441 137.212357,917.628479 
	C91.697662,918.000000 46.395325,918.000000 1.000000,918.000000 
	C1.000000,750.312439 1.000000,582.624878 1.000001,414.468658 
z"/>
<path fill="#000000" opacity="1.000000" stroke="none" 
	d="
M697.531372,0.999997 
	C697.427063,1.657162 696.917297,2.796348 696.269287,2.881387 
	C694.302490,3.139486 692.281982,2.973206 690.282837,3.001529 
	C667.018494,3.331124 643.753296,3.614039 620.490295,4.021079 
	C608.387817,4.232839 596.287354,4.611714 584.189270,5.012078 
	C565.487183,5.630990 546.786255,6.291728 528.087830,7.012511 
	C512.383850,7.617866 496.683563,8.320993 480.982697,9.005319 
	C466.111023,9.653506 451.239166,10.300822 436.370270,11.009386 
	C423.330414,11.630791 410.292999,12.308405 397.257355,13.013601 
	C385.714966,13.638018 374.176147,14.328628 362.636353,15.000736 
	C345.502502,15.998657 328.365570,16.948488 311.236786,18.027058 
	C296.759583,18.938665 282.291321,19.993589 267.820435,21.004480 
	C253.679565,21.992319 239.538086,22.973528 225.401154,24.015455 
	C212.423981,24.971909 199.449539,25.968962 186.479233,27.014257 
	C170.403839,28.309795 154.328232,29.608936 138.263351,31.027086 
	C124.185059,32.269871 109.993530,32.903801 96.081779,35.199234 
	C75.874802,38.533386 57.704220,46.891781 42.498447,61.003712 
	C27.980242,74.477539 17.188072,90.295097 12.714836,109.823494 
	C11.259934,116.175034 10.263330,122.758125 10.122000,129.258453 
	C9.796064,144.249634 7.738326,158.968353 4.697813,173.598129 
	C4.366998,175.189880 4.076060,176.816376 4.023047,178.435150 
	C3.643125,190.036438 3.356325,201.640854 2.948746,213.241043 
	C2.912711,214.266647 2.226030,215.269379 1.420772,216.141357 
	C1.000000,144.367722 1.000000,72.735435 1.000000,1.000000 
	C233.020889,1.000000 465.041779,1.000000 697.531372,0.999997 
z"/>
<path fill="#2350A9" opacity="1.000000" stroke="none" 
	d="
M726.004028,809.001831 
	C667.038818,821.023865 608.598511,833.555786 549.907654,844.778076 
	C499.060333,854.500610 448.008270,863.228088 396.899872,871.487000 
	C350.717621,878.949951 304.344788,885.239563 258.038727,891.926880 
	C243.372528,894.044800 228.683884,896.098511 213.947678,897.622131 
	C179.756287,901.157104 149.037582,893.402893 124.114227,868.416931 
	C115.632446,859.913879 109.854294,849.689880 106.474510,838.068115 
	C80.734047,749.556824 60.766399,659.750671 46.257236,568.738647 
	C36.710037,508.851715 29.623577,448.664185 24.777281,388.202576 
	C18.928507,315.234192 16.416409,242.161880 17.006596,168.973267 
	C17.307940,131.603622 44.972046,94.905876 83.169762,83.216835 
	C96.401398,79.167778 110.550888,77.798729 124.392303,76.124649 
	C158.945404,71.945518 193.542389,68.103531 228.159302,64.485214 
	C260.626465,61.091606 293.128967,58.018112 325.639374,55.061382 
	C359.313324,51.998833 393.000061,49.048618 426.709625,46.412579 
	C461.086945,43.724323 495.483337,41.228161 529.899231,39.097279 
	C580.445129,35.967697 631.006897,33.068558 681.579163,30.397808 
	C714.022461,28.684456 746.484680,27.079376 778.959534,26.257820 
	C880.902466,23.678843 982.854126,21.434977 1084.805542,19.207848 
	C1104.294922,18.782101 1123.818604,19.563326 1143.291626,18.842947 
	C1181.386475,17.433685 1211.554077,45.898876 1218.868286,79.831726 
	C1237.322510,165.446686 1254.061279,251.407944 1267.632935,337.928101 
	C1277.823486,402.894196 1286.583252,468.086853 1295.711304,533.216309 
	C1298.553467,553.496155 1300.734131,573.876770 1302.836426,594.250488 
	C1306.482056,629.580627 1285.763184,660.664673 1250.659180,670.925232 
	C1175.422119,692.916504 1100.174561,714.904846 1024.620483,735.769104 
	C927.382629,762.621277 829.316956,786.235962 730.802246,807.958984 
	C729.340271,808.281372 727.880798,808.614807 726.004028,809.001831 
M684.587830,57.000019 
	C678.476501,57.333439 672.368896,57.788548 666.253113,57.975395 
	C652.810364,58.386078 639.363281,58.650894 625.918396,58.994549 
	C613.306213,59.316917 600.691956,59.584358 588.083557,60.019970 
	C571.192444,60.603535 554.304688,61.289986 537.418274,61.999245 
	C522.690430,62.617836 507.964172,63.283287 493.241516,64.014122 
	C481.347321,64.604546 469.456818,65.277809 457.569611,65.996185 
	C441.728180,66.953522 425.893616,68.024689 410.052155,68.981552 
	C397.997192,69.709694 385.934570,70.309937 373.878448,71.020050 
	C368.931122,71.311447 363.985138,71.668381 359.050385,72.123428 
	C345.429810,73.379425 331.821655,74.772499 318.196594,75.975456 
	C308.986328,76.788643 299.736938,77.183067 290.538544,78.100578 
	C275.635529,79.587120 260.766724,81.412857 245.870728,82.974022 
	C235.051544,84.107918 224.192764,84.879021 213.386230,86.114487 
	C200.652771,87.570251 187.982025,89.597122 175.236740,90.920097 
	C163.910370,92.095802 152.701859,93.603828 142.139435,98.067902 
	C118.416946,108.093887 101.415688,124.503250 92.941460,149.327637 
	C88.824203,161.388702 90.433197,173.884750 89.201736,186.145157 
	C87.960846,198.499481 88.016884,211.017532 88.069801,223.461441 
	C88.182259,249.907349 88.509949,276.354736 89.037033,302.795776 
	C89.480125,325.023438 90.316826,347.243378 91.006744,369.465912 
	C91.305191,379.078674 91.618912,388.691559 92.029099,398.300018 
	C92.276054,404.085052 92.624893,409.869598 93.097420,415.640442 
	C94.349121,430.927216 95.710999,446.204926 96.993217,461.489227 
	C97.724571,470.207123 98.226334,478.947235 99.118599,487.647919 
	C100.259056,498.768616 101.742096,509.853790 102.978477,520.965271 
	C104.088776,530.943604 104.885986,540.959534 106.148109,550.917480 
	C107.572136,562.152771 109.403809,573.335815 110.980225,584.552490 
	C112.741623,597.085388 114.215103,609.662109 116.182823,622.161682 
	C118.221138,635.109802 120.681450,647.991943 122.993774,660.896423 
	C126.175171,678.651001 129.220520,696.432373 132.638672,714.141541 
	C136.239624,732.797791 140.442123,751.338989 143.956589,770.010437 
	C147.621841,789.483032 155.538055,806.295715 170.875107,819.516968 
	C187.364197,833.731262 206.645477,839.955322 227.869812,840.853333 
	C234.382980,841.128845 240.983398,839.777527 247.519608,838.974060 
	C258.126556,837.670227 268.730316,836.319214 279.304474,834.775696 
	C291.643372,832.974609 303.935638,830.854675 316.272491,829.038513 
	C330.906708,826.884033 345.594299,825.082275 360.208679,822.806091 
	C377.882996,820.053345 395.493958,816.896790 413.152344,814.038391 
	C430.499817,811.230286 447.900757,808.744751 465.226440,805.811768 
	C485.436676,802.390503 505.583252,798.594482 525.771362,795.040100 
	C547.264587,791.255981 568.797546,787.693237 590.269592,783.793640 
	C609.151123,780.364563 627.974060,776.612061 646.819885,772.986755 
	C668.082764,768.896362 689.374329,764.946960 710.595337,760.649353 
	C738.881470,754.920837 767.112976,748.922241 795.365479,743.027466 
	C826.021484,736.631104 856.722656,730.440613 887.316101,723.757690 
	C920.957458,716.408813 954.526672,708.721863 988.076050,700.960876 
	C1024.805908,692.464111 1061.493408,683.782288 1098.168335,675.051208 
	C1123.059082,669.125427 1147.931519,663.115479 1172.746826,656.882874 
	C1193.076538,651.776917 1213.610107,647.208862 1233.509155,640.731140 
	C1257.777344,632.830994 1271.509033,611.624268 1271.615479,587.325928 
	C1271.673706,574.051758 1268.268066,560.669556 1265.631348,547.494812 
	C1259.359009,516.152466 1252.871338,484.848022 1245.993164,453.633453 
	C1238.056519,417.615143 1229.719116,381.683624 1221.329956,345.767181 
	C1217.489868,329.326538 1213.240112,312.977844 1208.945312,296.648102 
	C1201.647827,268.900208 1194.260620,241.175079 1186.730225,213.489548 
	C1181.956177,195.937531 1176.928345,178.453262 1171.877930,160.978073 
	C1167.552612,146.012421 1163.651001,130.884842 1158.472290,116.213547 
	C1147.381226,84.792717 1118.729858,65.778778 1086.413330,64.026649 
	C1071.530518,63.219730 1056.635620,62.622551 1041.742676,62.017426 
	C1024.020752,61.297359 1006.295837,60.641060 988.570251,60.014828 
	C977.459717,59.622303 966.345886,59.322029 955.232727,59.005756 
	C942.954041,58.656300 930.676086,58.242821 918.394897,58.022919 
	C895.784424,57.618073 873.172424,57.103886 850.559937,57.046047 
	C795.562622,56.905361 740.564697,57.000023 684.587830,57.000019 
z"/>
<path fill="#000000" opacity="1.000000" stroke="none" 
	d="
M685.077393,56.999950 
	C740.564697,57.000023 795.562622,56.905361 850.559937,57.046047 
	C873.172424,57.103886 895.784424,57.618073 918.394897,58.022919 
	C930.676086,58.242821 942.954041,58.656300 955.232727,59.005756 
	C966.345886,59.322029 977.459717,59.622303 988.570251,60.014828 
	C1006.295837,60.641060 1024.020752,61.297359 1041.742676,62.017426 
	C1056.635620,62.622551 1071.530518,63.219730 1086.413330,64.026649 
	C1118.729858,65.778778 1147.381226,84.792717 1158.472290,116.213547 
	C1163.651001,130.884842 1167.552612,146.012421 1171.877930,160.978073 
	C1176.928345,178.453262 1181.956177,195.937531 1186.730225,213.489548 
	C1194.260620,241.175079 1201.647827,268.900208 1208.945312,296.648102 
	C1213.240112,312.977844 1217.489868,329.326538 1221.329956,345.767181 
	C1229.719116,381.683624 1238.056519,417.615143 1245.993164,453.633453 
	C1252.871338,484.848022 1259.359009,516.152466 1265.631348,547.494812 
	C1268.268066,560.669556 1271.673706,574.051758 1271.615479,587.325928 
	C1271.509033,611.624268 1257.777344,632.830994 1233.509155,640.731140 
	C1213.610107,647.208862 1193.076538,651.776917 1172.746826,656.882874 
	C1147.931519,663.115479 1123.059082,669.125427 1098.168335,675.051208 
	C1061.493408,683.782288 1024.805908,692.464111 988.076050,700.960876 
	C954.526672,708.721863 920.957458,716.408813 887.316101,723.757690 
	C856.722656,730.440613 826.021484,736.631104 795.365479,743.027466 
	C767.112976,748.922241 738.881470,754.920837 710.595337,760.649353 
	C689.374329,764.946960 668.082764,768.896362 646.819885,772.986755 
	C627.974060,776.612061 609.151123,780.364563 590.269592,783.793640 
	C568.797546,787.693237 547.264587,791.255981 525.771362,795.040100 
	C505.583252,798.594482 485.436676,802.390503 465.226440,805.811768 
	C447.900757,808.744751 430.499817,811.230286 413.152344,814.038391 
	C395.493958,816.896790 377.882996,820.053345 360.208679,822.806091 
	C345.594299,825.082275 330.906708,826.884033 316.272491,829.038513 
	C303.935638,830.854675 291.643372,832.974609 279.304474,834.775696 
	C268.730316,836.319214 258.126556,837.670227 247.519608,838.974060 
	C240.983398,839.777527 234.382980,841.128845 227.869812,840.853333 
	C206.645477,839.955322 187.364197,833.731262 170.875107,819.516968 
	C155.538055,806.295715 147.621841,789.483032 143.956589,770.010437 
	C140.442123,751.338989 136.239624,732.797791 132.638672,714.141541 
	C129.220520,696.432373 126.175171,678.651001 122.993774,660.896423 
	C120.681450,647.991943 118.221138,635.109802 116.182823,622.161682 
	C114.215103,609.662109 112.741623,597.085388 110.980225,584.552490 
	C109.403809,573.335815 107.572136,562.152771 106.148109,550.917480 
	C104.885986,540.959534 104.088776,530.943604 102.978477,520.965271 
	C101.742096,509.853790 100.259056,498.768616 99.118599,487.647919 
	C98.226334,478.947235 97.724571,470.207123 96.993217,461.489227 
	C95.710999,446.204926 94.349121,430.927216 93.097420,415.640442 
	C92.624893,409.869598 92.276054,404.085052 92.029099,398.300018 
	C91.618912,388.691559 91.305191,379.078674 91.006744,369.465912 
	C90.316826,347.243378 89.480125,325.023438 89.037033,302.795776 
	C88.509949,276.354736 88.182259,249.907349 88.069801,223.461441 
	C88.016884,211.017532 87.960846,198.499481 89.201736,186.145157 
	C90.433197,173.884750 88.824203,161.388702 92.941460,149.327637 
	C101.415688,124.503250 118.416946,108.093887 142.139435,98.067902 
	C152.701859,93.603828 163.910370,92.095802 175.236740,90.920097 
	C187.982025,89.597122 200.652771,87.570251 213.386230,86.114487 
	C224.192764,84.879021 235.051544,84.107918 245.870728,82.974022 
	C260.766724,81.412857 275.635529,79.587120 290.538544,78.100578 
	C299.736938,77.183067 308.986328,76.788643 318.196594,75.975456 
	C331.821655,74.772499 345.429810,73.379425 359.050385,72.123428 
	C363.985138,71.668381 368.931122,71.311447 373.878448,71.020050 
	C385.934570,70.309937 397.997192,69.709694 410.052155,68.981552 
	C425.893616,68.024689 441.728180,66.953522 457.569611,65.996185 
	C469.456818,65.277809 481.347321,64.604546 493.241516,64.014122 
	C507.964172,63.283287 522.690430,62.617836 537.418274,61.999245 
	C554.304688,61.289986 571.192444,60.603535 588.083557,60.019970 
	C600.691956,59.584358 613.306213,59.316917 625.918396,58.994549 
	C639.363281,58.650894 652.810364,58.386078 666.253113,57.975395 
	C672.368896,57.788548 678.476501,57.333439 685.077393,56.999950 
M518.735779,608.036011 
	C529.318726,606.627075 540.054565,605.920654 550.451721,603.657959 
	C570.093323,599.383484 588.941833,592.850159 606.389526,582.403931 
	C619.273010,574.690369 628.503174,563.959961 634.896301,550.790222 
	C643.948120,532.143555 646.058411,512.312073 643.000610,491.919617 
	C639.390381,467.842773 628.514038,448.688110 606.404785,436.612518 
	C596.355591,431.123840 586.495789,425.051971 580.161438,414.763245 
	C575.422180,407.065613 574.895691,398.645020 580.225525,391.383850 
	C586.252563,383.172913 593.796631,375.934784 598.941528,367.243896 
	C613.435791,342.759857 618.082275,316.629028 607.880066,289.240753 
	C600.722961,270.027222 588.331909,255.221252 569.495789,246.122772 
	C554.793152,239.020889 539.048035,236.722672 523.122986,236.203873 
	C511.437958,235.823181 499.676483,237.119492 487.977509,238.032791 
	C477.474335,238.852753 467.000153,240.084656 456.531311,241.291977 
	C446.740417,242.421143 436.979431,243.807617 427.193970,244.986832 
	C417.713135,246.129318 408.208954,247.080017 398.731415,248.247894 
	C389.273834,249.413300 379.839417,250.765274 370.389679,251.995834 
	C360.310364,253.308411 350.010010,253.780884 341.063019,259.464813 
	C336.860992,262.134277 333.570435,265.320648 331.710632,270.383423 
	C325.447205,287.433746 328.515991,304.626221 330.098938,321.828094 
	C331.698425,339.209808 333.432831,356.579346 334.972534,373.966217 
	C335.817230,383.505188 336.277466,393.077942 337.097900,402.619385 
	C338.311768,416.735992 339.715668,430.836121 340.992126,444.947510 
	C341.750122,453.327637 342.293396,461.728790 343.158325,470.097229 
	C344.325104,481.386810 345.783325,492.646088 346.977295,503.933075 
	C348.104248,514.586060 348.882324,525.277649 350.116821,535.917053 
	C351.934937,551.586914 354.202759,567.205322 355.951599,582.882202 
	C358.504974,605.770996 368.847565,615.542053 391.670624,615.722534 
	C407.608002,615.848572 423.555420,613.222534 439.518616,612.118225 
	C449.105042,611.455017 458.729401,611.323120 468.338531,611.007874 
	C479.610962,610.638000 490.892120,610.469360 502.155945,609.929932 
	C507.393768,609.679016 512.599548,608.759033 518.735779,608.036011 
M699.658447,216.094574 
	C698.306519,216.655899 696.910828,217.131027 695.609253,217.791504 
	C677.099060,227.184204 661.175354,239.838577 648.380005,256.190704 
	C630.994751,278.408508 620.882629,303.773987 619.218506,331.848999 
	C617.839783,355.110504 619.046387,378.286957 625.721375,401.071869 
	C632.228210,423.282593 642.608215,443.112274 657.909058,460.281342 
	C670.550110,474.465942 685.701111,485.378662 703.184387,493.112762 
	C727.386353,503.818939 752.486389,508.437958 778.823547,504.993073 
	C800.735291,502.126984 821.990662,497.110901 841.600647,486.215118 
	C864.416443,473.538147 882.118591,455.971863 893.997192,432.780457 
	C905.338623,410.637512 908.300537,386.415894 909.807739,362.071686 
	C910.343018,353.426636 908.986145,344.609619 907.962341,335.933716 
	C905.461792,314.742645 899.731689,294.554688 889.395325,275.685150 
	C878.890808,256.508667 864.696594,240.928696 846.554932,228.802780 
	C825.074646,214.445358 801.021851,207.296829 775.681396,205.229141 
	C749.975403,203.131622 724.505737,205.326782 699.658447,216.094574 
M118.972664,424.468567 
	C117.317581,433.494995 114.514893,442.486755 114.240768,451.554932 
	C113.625832,471.896912 113.535255,492.252014 116.814735,512.540466 
	C120.514877,535.431274 126.335510,557.400879 138.162155,577.597778 
	C149.350418,596.704285 163.992188,612.077148 184.194199,621.557190 
	C199.003983,628.506836 214.802124,630.102905 230.618393,626.763916 
	C238.663132,625.065552 246.364990,621.156189 253.834259,617.462524 
	C263.854919,612.507324 273.802765,611.692261 284.397522,615.143311 
	C295.209015,618.665039 306.103638,621.598022 317.752441,619.047363 
	C334.550720,615.369202 341.921753,602.905090 339.786316,586.556641 
	C338.146820,574.004700 336.506287,561.451660 335.026642,548.880310 
	C333.852142,538.901306 332.953918,528.890198 331.872528,518.899841 
	C330.615601,507.288239 329.219666,495.691254 328.023621,484.073578 
	C327.196045,476.035065 326.663727,467.966614 325.894562,459.921570 
	C324.641571,446.815338 323.182617,433.727722 322.039276,420.612366 
	C321.164734,410.580292 320.680603,400.514771 319.956818,390.468872 
	C318.664093,372.526489 317.074493,354.601105 316.097168,336.642029 
	C315.554718,326.673706 315.966125,316.651459 316.008270,306.653778 
	C316.060791,294.189758 314.469055,281.938385 309.908508,270.331726 
	C305.819275,259.924622 302.347656,253.990494 288.537354,255.007812 
	C284.426453,255.310638 280.206604,255.222214 276.242096,256.171143 
	C270.191406,257.619415 264.082916,258.492340 259.661530,264.384460 
	C251.624756,275.094482 250.721268,287.109039 251.038330,299.629852 
	C251.358780,312.284607 252.537201,324.998260 251.683334,337.573608 
	C251.120773,345.858795 247.819687,354.035461 238.378082,357.227753 
	C232.584732,359.186584 226.718063,358.735596 221.018005,357.435455 
	C208.404404,354.558380 195.760056,353.500244 183.029541,356.053406 
	C160.866898,360.498199 144.167831,372.698486 132.436279,391.995636 
	C126.403366,401.919159 122.105301,412.502472 118.972664,424.468567 
M1128.939087,473.990692 
	C1122.771240,458.647888 1102.467896,455.768616 1091.125610,465.465546 
	C1085.768555,470.045502 1081.009033,475.345703 1076.146851,480.478790 
	C1066.052856,491.135254 1053.728394,495.073944 1039.514771,492.124268 
	C1018.607605,487.785492 1006.373840,473.262390 999.200684,454.528870 
	C991.060730,433.270294 989.729004,410.983826 991.840759,388.308929 
	C993.334106,372.274261 998.033081,357.802399 1008.344727,345.365051 
	C1016.104919,336.005066 1026.397705,330.147064 1038.293823,330.485992 
	C1045.394775,330.688324 1052.601807,334.806244 1059.344849,338.033569 
	C1068.179810,342.262177 1076.229980,347.635651 1086.336060,349.547852 
	C1095.070679,351.200531 1111.049316,342.815582 1114.245239,333.650635 
	C1119.108643,319.703033 1115.877197,307.863800 1105.998779,297.576233 
	C1096.379639,287.558594 1084.439697,281.060059 1071.678467,275.893860 
	C1049.709717,267.000244 1026.981201,264.232849 1003.862793,269.278168 
	C979.217224,274.656769 959.132812,288.057343 943.709778,307.983063 
	C923.131653,334.568970 914.357910,365.330170 913.028992,398.489227 
	C912.138367,420.712555 914.039185,442.525421 920.738708,464.004822 
	C928.592590,489.185303 939.026550,512.577393 958.543701,531.092957 
	C975.188599,546.883667 995.180298,555.579346 1017.658691,557.776001 
	C1033.477295,559.321838 1049.065552,557.557373 1064.263428,551.240601 
	C1089.709839,540.664124 1112.204712,527.051880 1125.082275,501.411774 
	C1129.311157,492.992065 1131.781738,484.280243 1128.939087,473.990692 
M1185.970459,359.782654 
	C1185.282104,352.568024 1184.692139,345.342346 1183.882568,338.141327 
	C1182.670898,327.364349 1181.256836,316.610229 1180.018433,305.836090 
	C1178.910278,296.194733 1178.044800,286.524414 1176.854492,276.893768 
	C1175.001953,261.905426 1173.330322,246.879944 1170.887207,231.984161 
	C1169.035522,220.694901 1166.853516,209.345306 1163.412842,198.467072 
	C1160.608032,189.598343 1155.252808,181.828171 1145.024414,179.547256 
	C1142.308960,178.941681 1139.536133,178.160706 1136.796753,178.187363 
	C1131.719116,178.236771 1126.319702,177.834152 1121.638062,179.383606 
	C1110.846313,182.955322 1107.236572,191.666519 1106.921997,202.511703 
	C1106.525513,216.178207 1109.598022,229.296570 1111.862305,242.614914 
	C1115.382690,263.321075 1118.266846,284.148071 1120.886597,304.990967 
	C1123.286621,324.085968 1125.113159,343.257080 1126.942871,362.418488 
	C1128.479004,378.505859 1129.776611,394.618713 1130.957275,410.736542 
	C1132.115723,426.549835 1133.131836,442.376526 1133.956055,458.210571 
	C1134.799438,474.412994 1134.981812,490.656769 1136.142090,506.833038 
	C1136.789185,515.854248 1139.625488,524.211487 1148.974121,528.542175 
	C1155.115112,531.386902 1161.339111,531.728516 1167.698975,529.958069 
	C1178.460571,526.962280 1187.724609,521.582764 1191.603149,510.520599 
	C1196.528442,496.473602 1195.434204,481.682739 1194.794678,467.169739 
	C1194.201172,453.706055 1192.241699,440.305939 1191.031250,426.864532 
	C1190.482788,420.773499 1190.397705,414.641937 1189.917969,408.543274 
	C1188.663818,392.595917 1187.307861,376.656555 1185.970459,359.782654 
z"/>
<path fill="#2350A9" opacity="1.000000" stroke="none" 
	d="
M518.277832,608.089172 
	C512.599548,608.759033 507.393768,609.679016 502.155945,609.929932 
	C490.892120,610.469360 479.610962,610.638000 468.338531,611.007874 
	C458.729401,611.323120 449.105042,611.455017 439.518616,612.118225 
	C423.555420,613.222534 407.608002,615.848572 391.670624,615.722534 
	C368.847565,615.542053 358.504974,605.770996 355.951599,582.882202 
	C354.202759,567.205322 351.934937,551.586914 350.116821,535.917053 
	C348.882324,525.277649 348.104248,514.586060 346.977295,503.933075 
	C345.783325,492.646088 344.325104,481.386810 343.158325,470.097229 
	C342.293396,461.728790 341.750122,453.327637 340.992126,444.947510 
	C339.715668,430.836121 338.311768,416.735992 337.097900,402.619385 
	C336.277466,393.077942 335.817230,383.505188 334.972534,373.966217 
	C333.432831,356.579346 331.698425,339.209808 330.098938,321.828094 
	C328.515991,304.626221 325.447205,287.433746 331.710632,270.383423 
	C333.570435,265.320648 336.860992,262.134277 341.063019,259.464813 
	C350.010010,253.780884 360.310364,253.308411 370.389679,251.995834 
	C379.839417,250.765274 389.273834,249.413300 398.731415,248.247894 
	C408.208954,247.080017 417.713135,246.129318 427.193970,244.986832 
	C436.979431,243.807617 446.740417,242.421143 456.531311,241.291977 
	C467.000153,240.084656 477.474335,238.852753 487.977509,238.032791 
	C499.676483,237.119492 511.437958,235.823181 523.122986,236.203873 
	C539.048035,236.722672 554.793152,239.020889 569.495789,246.122772 
	C588.331909,255.221252 600.722961,270.027222 607.880066,289.240753 
	C618.082275,316.629028 613.435791,342.759857 598.941528,367.243896 
	C593.796631,375.934784 586.252563,383.172913 580.225525,391.383850 
	C574.895691,398.645020 575.422180,407.065613 580.161438,414.763245 
	C586.495789,425.051971 596.355591,431.123840 606.404785,436.612518 
	C628.514038,448.688110 639.390381,467.842773 643.000610,491.919617 
	C646.058411,512.312073 643.948120,532.143555 634.896301,550.790222 
	C628.503174,563.959961 619.273010,574.690369 606.389526,582.403931 
	C588.941833,592.850159 570.093323,599.383484 550.451721,603.657959 
	C540.054565,605.920654 529.318726,606.627075 518.277832,608.089172 
M418.077087,463.729156 
	C412.530243,475.032776 410.439697,487.208313 410.135315,499.573181 
	C409.850647,511.137451 411.930237,522.522827 416.198303,533.361755 
	C421.865875,547.755005 431.234924,558.417297 447.317749,560.482666 
	C455.896454,561.584290 464.740753,561.432800 473.403320,560.878906 
	C487.036438,560.007141 500.708527,558.904968 514.194092,556.807373 
	C527.118652,554.797119 539.524231,550.474426 549.246582,541.143433 
	C562.825012,528.111511 570.262390,512.638855 568.114380,493.120758 
	C566.351135,477.098328 559.275391,464.559784 546.590149,454.813873 
	C532.824158,444.237610 516.515381,442.921631 500.229736,442.178894 
	C492.221130,441.813629 484.101074,443.108490 476.077057,444.043518 
	C463.360260,445.525360 450.631958,447.033112 438.004425,449.112457 
	C429.436188,450.523346 423.150238,455.874573 418.077087,463.729156 
M403.458252,374.891876 
	C412.304413,389.726776 425.312958,397.499298 442.631165,396.880890 
	C451.985626,396.546875 461.290131,394.933105 470.629028,394.017853 
	C485.768250,392.534119 500.532288,389.838593 514.133606,382.451324 
	C539.667419,368.583252 548.374268,335.983429 531.774719,311.390594 
	C521.069641,295.530670 504.441193,289.352722 486.495483,289.372437 
	C467.788269,289.392975 449.032867,291.954987 430.399933,294.234589 
	C420.599487,295.433594 412.158173,300.131714 405.824707,308.319885 
	C397.178802,319.497742 395.878265,332.753418 396.407745,345.758514 
	C396.797241,355.324493 400.728363,364.746246 403.458252,374.891876 
z"/>
<path fill="#2350A9" opacity="1.000000" stroke="none" 
	d="
M700.035400,215.992126 
	C724.505737,205.326782 749.975403,203.131622 775.681396,205.229141 
	C801.021851,207.296829 825.074646,214.445358 846.554932,228.802780 
	C864.696594,240.928696 878.890808,256.508667 889.395325,275.685150 
	C899.731689,294.554688 905.461792,314.742645 907.962341,335.933716 
	C908.986145,344.609619 910.343018,353.426636 909.807739,362.071686 
	C908.300537,386.415894 905.338623,410.637512 893.997192,432.780457 
	C882.118591,455.971863 864.416443,473.538147 841.600647,486.215118 
	C821.990662,497.110901 800.735291,502.126984 778.823547,504.993073 
	C752.486389,508.437958 727.386353,503.818939 703.184387,493.112762 
	C685.701111,485.378662 670.550110,474.465942 657.909058,460.281342 
	C642.608215,443.112274 632.228210,423.282593 625.721375,401.071869 
	C619.046387,378.286957 617.839783,355.110504 619.218506,331.848999 
	C620.882629,303.773987 630.994751,278.408508 648.380005,256.190704 
	C661.175354,239.838577 677.099060,227.184204 695.609253,217.791504 
	C696.910828,217.131027 698.306519,216.655899 700.035400,215.992126 
M730.544556,272.965698 
	C716.310547,282.054871 707.344849,295.124359 701.948303,310.874207 
	C697.253540,324.575836 695.984558,338.592834 696.857544,353.070465 
	C697.830688,369.209045 701.187927,384.561859 708.020142,399.212646 
	C716.387390,417.155090 728.719055,431.221649 747.000122,439.487854 
	C755.485046,443.324524 764.505066,446.677307 773.760437,444.738129 
	C793.321594,440.639709 809.727844,430.844025 820.971863,413.905426 
	C834.954651,392.841064 838.001099,369.457123 835.178955,344.738861 
	C832.866699,324.486023 826.555603,305.884460 813.874390,289.901154 
	C801.399963,274.178558 784.847900,265.428955 764.686035,264.024994 
	C752.608459,263.183990 741.733093,267.424500 730.544556,272.965698 
z"/>
<path fill="#2350A9" opacity="1.000000" stroke="none" 
	d="
M118.996483,424.053101 
	C122.105301,412.502472 126.403366,401.919159 132.436279,391.995636 
	C144.167831,372.698486 160.866898,360.498199 183.029541,356.053406 
	C195.760056,353.500244 208.404404,354.558380 221.018005,357.435455 
	C226.718063,358.735596 232.584732,359.186584 238.378082,357.227753 
	C247.819687,354.035461 251.120773,345.858795 251.683334,337.573608 
	C252.537201,324.998260 251.358780,312.284607 251.038330,299.629852 
	C250.721268,287.109039 251.624756,275.094482 259.661530,264.384460 
	C264.082916,258.492340 270.191406,257.619415 276.242096,256.171143 
	C280.206604,255.222214 284.426453,255.310638 288.537354,255.007812 
	C302.347656,253.990494 305.819275,259.924622 309.908508,270.331726 
	C314.469055,281.938385 316.060791,294.189758 316.008270,306.653778 
	C315.966125,316.651459 315.554718,326.673706 316.097168,336.642029 
	C317.074493,354.601105 318.664093,372.526489 319.956818,390.468872 
	C320.680603,400.514771 321.164734,410.580292 322.039276,420.612366 
	C323.182617,433.727722 324.641571,446.815338 325.894562,459.921570 
	C326.663727,467.966614 327.196045,476.035065 328.023621,484.073578 
	C329.219666,495.691254 330.615601,507.288239 331.872528,518.899841 
	C332.953918,528.890198 333.852142,538.901306 335.026642,548.880310 
	C336.506287,561.451660 338.146820,574.004700 339.786316,586.556641 
	C341.921753,602.905090 334.550720,615.369202 317.752441,619.047363 
	C306.103638,621.598022 295.209015,618.665039 284.397522,615.143311 
	C273.802765,611.692261 263.854919,612.507324 253.834259,617.462524 
	C246.364990,621.156189 238.663132,625.065552 230.618393,626.763916 
	C214.802124,630.102905 199.003983,628.506836 184.194199,621.557190 
	C163.992188,612.077148 149.350418,596.704285 138.162155,577.597778 
	C126.335510,557.400879 120.514877,535.431274 116.814735,512.540466 
	C113.535255,492.252014 113.625832,471.896912 114.240768,451.554932 
	C114.514893,442.486755 117.317581,433.494995 118.996483,424.053101 
M167.107056,451.851074 
	C166.404984,458.402649 165.258514,464.942444 165.084854,471.507996 
	C164.580856,490.562378 166.434937,509.482605 172.213577,527.651489 
	C177.558609,544.457092 185.575562,560.001587 200.371994,570.784241 
	C206.793900,575.464111 214.062729,579.771240 222.057800,578.727661 
	C234.344406,577.124146 244.618866,570.997437 252.105423,560.702271 
	C262.117188,546.934631 264.807190,530.873962 265.827515,514.595337 
	C266.684875,500.916565 266.008636,487.228302 263.166840,473.602875 
	C260.017303,458.501740 257.780701,443.257599 249.407089,429.835449 
	C242.541702,418.830933 234.413391,409.503998 221.297409,405.619629 
	C206.308441,401.180573 190.167862,406.583344 180.329941,418.955597 
	C172.755310,428.481567 169.684143,439.524292 167.107056,451.851074 
z"/>
<path fill="#2350A9" opacity="1.000000" stroke="none" 
	d="
M1128.989258,474.399780 
	C1131.781738,484.280243 1129.311157,492.992065 1125.082275,501.411774 
	C1112.204712,527.051880 1089.709839,540.664124 1064.263428,551.240601 
	C1049.065552,557.557373 1033.477295,559.321838 1017.658691,557.776001 
	C995.180298,555.579346 975.188599,546.883667 958.543701,531.092957 
	C939.026550,512.577393 928.592590,489.185303 920.738708,464.004822 
	C914.039185,442.525421 912.138367,420.712555 913.028992,398.489227 
	C914.357910,365.330170 923.131653,334.568970 943.709778,307.983063 
	C959.132812,288.057343 979.217224,274.656769 1003.862793,269.278168 
	C1026.981201,264.232849 1049.709717,267.000244 1071.678467,275.893860 
	C1084.439697,281.060059 1096.379639,287.558594 1105.998779,297.576233 
	C1115.877197,307.863800 1119.108643,319.703033 1114.245239,333.650635 
	C1111.049316,342.815582 1095.070679,351.200531 1086.336060,349.547852 
	C1076.229980,347.635651 1068.179810,342.262177 1059.344849,338.033569 
	C1052.601807,334.806244 1045.394775,330.688324 1038.293823,330.485992 
	C1026.397705,330.147064 1016.104919,336.005066 1008.344727,345.365051 
	C998.033081,357.802399 993.334106,372.274261 991.840759,388.308929 
	C989.729004,410.983826 991.060730,433.270294 999.200684,454.528870 
	C1006.373840,473.262390 1018.607605,487.785492 1039.514771,492.124268 
	C1053.728394,495.073944 1066.052856,491.135254 1076.146851,480.478790 
	C1081.009033,475.345703 1085.768555,470.045502 1091.125610,465.465546 
	C1102.467896,455.768616 1122.771240,458.647888 1128.989258,474.399780 
z"/>
<path fill="#2350A9" opacity="1.000000" stroke="none" 
	d="
M1185.981445,360.248322 
	C1187.307861,376.656555 1188.663818,392.595917 1189.917969,408.543274 
	C1190.397705,414.641937 1190.482788,420.773499 1191.031250,426.864532 
	C1192.241699,440.305939 1194.201172,453.706055 1194.794678,467.169739 
	C1195.434204,481.682739 1196.528442,496.473602 1191.603149,510.520599 
	C1187.724609,521.582764 1178.460571,526.962280 1167.698975,529.958069 
	C1161.339111,531.728516 1155.115112,531.386902 1148.974121,528.542175 
	C1139.625488,524.211487 1136.789185,515.854248 1136.142090,506.833038 
	C1134.981812,490.656769 1134.799438,474.412994 1133.956055,458.210571 
	C1133.131836,442.376526 1132.115723,426.549835 1130.957275,410.736542 
	C1129.776611,394.618713 1128.479004,378.505859 1126.942871,362.418488 
	C1125.113159,343.257080 1123.286621,324.085968 1120.886597,304.990967 
	C1118.266846,284.148071 1115.382690,263.321075 1111.862305,242.614914 
	C1109.598022,229.296570 1106.525513,216.178207 1106.921997,202.511703 
	C1107.236572,191.666519 1110.846313,182.955322 1121.638062,179.383606 
	C1126.319702,177.834152 1131.719116,178.236771 1136.796753,178.187363 
	C1139.536133,178.160706 1142.308960,178.941681 1145.024414,179.547256 
	C1155.252808,181.828171 1160.608032,189.598343 1163.412842,198.467072 
	C1166.853516,209.345306 1169.035522,220.694901 1170.887207,231.984161 
	C1173.330322,246.879944 1175.001953,261.905426 1176.854492,276.893768 
	C1178.044800,286.524414 1178.910278,296.194733 1180.018433,305.836090 
	C1181.256836,316.610229 1182.670898,327.364349 1183.882568,338.141327 
	C1184.692139,345.342346 1185.282104,352.568024 1185.981445,360.248322 
z"/>
<path fill="#000000" opacity="1.000000" stroke="none" 
	d="
M418.259583,463.401611 
	C423.150238,455.874573 429.436188,450.523346 438.004425,449.112457 
	C450.631958,447.033112 463.360260,445.525360 476.077057,444.043518 
	C484.101074,443.108490 492.221130,441.813629 500.229736,442.178894 
	C516.515381,442.921631 532.824158,444.237610 546.590149,454.813873 
	C559.275391,464.559784 566.351135,477.098328 568.114380,493.120758 
	C570.262390,512.638855 562.825012,528.111511 549.246582,541.143433 
	C539.524231,550.474426 527.118652,554.797119 514.194092,556.807373 
	C500.708527,558.904968 487.036438,560.007141 473.403320,560.878906 
	C464.740753,561.432800 455.896454,561.584290 447.317749,560.482666 
	C431.234924,558.417297 421.865875,547.755005 416.198303,533.361755 
	C411.930237,522.522827 409.850647,511.137451 410.135315,499.573181 
	C410.439697,487.208313 412.530243,475.032776 418.259583,463.401611 
z"/>
<path fill="#000000" opacity="1.000000" stroke="none" 
	d="
M403.269775,374.562073 
	C400.728363,364.746246 396.797241,355.324493 396.407745,345.758514 
	C395.878265,332.753418 397.178802,319.497742 405.824707,308.319885 
	C412.158173,300.131714 420.599487,295.433594 430.399933,294.234589 
	C449.032867,291.954987 467.788269,289.392975 486.495483,289.372437 
	C504.441193,289.352722 521.069641,295.530670 531.774719,311.390594 
	C548.374268,335.983429 539.667419,368.583252 514.133606,382.451324 
	C500.532288,389.838593 485.768250,392.534119 470.629028,394.017853 
	C461.290131,394.933105 451.985626,396.546875 442.631165,396.880890 
	C425.312958,397.499298 412.304413,389.726776 403.269775,374.562073 
z"/>
<path fill="#000000" opacity="1.000000" stroke="none" 
	d="
M730.819092,272.714050 
	C741.733093,267.424500 752.608459,263.183990 764.686035,264.024994 
	C784.847900,265.428955 801.399963,274.178558 813.874390,289.901154 
	C826.555603,305.884460 832.866699,324.486023 835.178955,344.738861 
	C838.001099,369.457123 834.954651,392.841064 820.971863,413.905426 
	C809.727844,430.844025 793.321594,440.639709 773.760437,444.738129 
	C764.505066,446.677307 755.485046,443.324524 747.000122,439.487854 
	C728.719055,431.221649 716.387390,417.155090 708.020142,399.212646 
	C701.187927,384.561859 697.830688,369.209045 696.857544,353.070465 
	C695.984558,338.592834 697.253540,324.575836 701.948303,310.874207 
	C707.344849,295.124359 716.310547,282.054871 730.819092,272.714050 
z"/>
<path fill="#000000" opacity="1.000000" stroke="none" 
	d="
M167.263824,451.442413 
	C169.684143,439.524292 172.755310,428.481567 180.329941,418.955597 
	C190.167862,406.583344 206.308441,401.180573 221.297409,405.619629 
	C234.413391,409.503998 242.541702,418.830933 249.407089,429.835449 
	C257.780701,443.257599 260.017303,458.501740 263.166840,473.602875 
	C266.008636,487.228302 266.684875,500.916565 265.827515,514.595337 
	C264.807190,530.873962 262.117188,546.934631 252.105423,560.702271 
	C244.618866,570.997437 234.344406,577.124146 222.057800,578.727661 
	C214.062729,579.771240 206.793900,575.464111 200.371994,570.784241 
	C185.575562,560.001587 177.558609,544.457092 172.213577,527.651489 
	C166.434937,509.482605 164.580856,490.562378 165.084854,471.507996 
	C165.258514,464.942444 166.404984,458.402649 167.263824,451.442413 
z"/>
</svg>