<svg xmlns="http://www.w3.org/2000/svg" xmlns:xlink="http://www.w3.org/1999/xlink" width="1324" zoomAndPan="magnify" viewBox="0 0 993 687.750001" height="917" preserveAspectRatio="xMidYMid meet" version="1.0"><defs><clipPath id="f573847c87"><path d="M 0.179688 0 L 992.820312 0 L 992.820312 687.5 L 0.179688 687.5 Z M 0.179688 0 " clip-rule="nonzero"/></clipPath><clipPath id="be2e739a67"><path d="M 139 465 L 992.820312 465 L 992.820312 687.5 L 139 687.5 Z M 139 465 " clip-rule="nonzero"/></clipPath><clipPath id="133646c1f6"><path d="M 825 0 L 992.820312 0 L 992.820312 429 L 825 429 Z M 825 0 " clip-rule="nonzero"/></clipPath><clipPath id="79a1141478"><path d="M 0.179688 310 L 104 310 L 104 687.5 L 0.179688 687.5 Z M 0.179688 310 " clip-rule="nonzero"/></clipPath><clipPath id="4a033d5582"><path d="M 0.179688 0 L 524 0 L 524 163 L 0.179688 163 Z M 0.179688 0 " clip-rule="nonzero"/></clipPath></defs><g clip-path="url(#f573847c87)"><path fill="#80cc28" d="M 139.625 688.25 C 127.613281 688.25 115.601562 688.25 103.398438 687.972656 C 102.828125 687.398438 102.480469 686.910156 102.0625 686.839844 C 91.683594 685.003906 81.992188 681.316406 73.328125 675.34375 C 60.929688 666.800781 51.460938 655.996094 48.0625 640.785156 C 44.605469 625.289062 40.933594 609.839844 37.601562 594.316406 C 34.449219 579.621094 31.566406 564.867188 28.675781 550.121094 C 26.839844 540.757812 25.078125 531.375 23.515625 521.964844 C 22.070312 513.253906 20.921875 504.496094 19.664062 495.757812 C 18.597656 488.34375 17.546875 480.929688 16.515625 473.515625 C 15.300781 464.773438 14.011719 456.039062 12.953125 447.277344 C 12.035156 439.699219 11.386719 432.085938 10.625 424.488281 C 9.640625 414.6875 8.597656 404.890625 7.691406 395.082031 C 7.074219 388.441406 6.644531 381.78125 6.132812 375.128906 C 5.144531 362.328125 4.027344 349.535156 3.21875 336.71875 C 2.714844 328.664062 2.707031 320.578125 2.359375 312.511719 C 2.328125 311.785156 1.421875 311.09375 0.925781 310.386719 C 0.925781 261.140625 0.925781 211.890625 1.238281 162.398438 C 1.84375 161.394531 2.359375 160.640625 2.386719 159.871094 C 2.691406 151.175781 2.90625 142.476562 3.191406 133.777344 C 3.230469 132.5625 3.449219 131.34375 3.695312 130.152344 C 5.976562 119.183594 7.519531 108.148438 7.761719 96.910156 C 7.871094 92.035156 8.617188 87.101562 9.707031 82.335938 C 13.0625 67.695312 21.152344 55.835938 32.035156 45.734375 C 43.4375 35.15625 57.058594 28.890625 72.210938 26.390625 C 82.640625 24.667969 93.28125 24.195312 103.835938 23.261719 C 115.878906 22.199219 127.929688 21.226562 139.984375 20.253906 C 149.707031 19.46875 159.433594 18.722656 169.164062 18.003906 C 179.761719 17.222656 190.367188 16.488281 200.96875 15.746094 C 211.816406 14.988281 222.664062 14.199219 233.515625 13.515625 C 246.359375 12.707031 259.207031 11.996094 272.054688 11.246094 C 280.703125 10.742188 289.355469 10.226562 298.007812 9.757812 C 307.78125 9.226562 317.558594 8.71875 327.332031 8.253906 C 338.480469 7.722656 349.632812 7.238281 360.78125 6.75 C 372.550781 6.238281 384.324219 5.710938 396.097656 5.257812 C 410.117188 4.71875 424.136719 4.222656 438.15625 3.757812 C 447.226562 3.457031 456.300781 3.171875 465.375 3.015625 C 482.8125 2.710938 500.257812 2.496094 517.699219 2.25 C 519.199219 2.230469 520.710938 2.355469 522.1875 2.160156 C 522.671875 2.097656 523.054688 1.242188 523.484375 0.75 C 623.964844 0.75 724.441406 0.75 825.15625 1.0625 C 826.273438 1.664062 827.152344 2.191406 828.042969 2.210938 C 841.484375 2.511719 854.925781 2.785156 868.367188 2.980469 C 874.609375 3.074219 880.867188 2.785156 887.097656 3.058594 C 893.246094 3.332031 899.640625 3.152344 905.457031 4.816406 C 927.292969 11.0625 941.339844 25.535156 946.964844 47.539062 C 949.230469 56.398438 950.097656 65.617188 951.613281 74.671875 C 953.589844 86.511719 955.714844 98.328125 957.523438 110.195312 C 959.226562 121.359375 960.546875 132.578125 962.132812 143.761719 C 964.058594 157.351562 966.191406 170.910156 968.03125 184.511719 C 969.464844 195.109375 970.542969 205.753906 971.867188 216.363281 C 973.296875 227.820312 974.949219 239.246094 976.28125 250.710938 C 977.457031 260.867188 978.257812 271.0625 979.347656 281.226562 C 980.773438 294.558594 982.394531 307.871094 983.789062 321.207031 C 984.90625 331.863281 985.859375 342.535156 986.796875 353.210938 C 987.851562 365.253906 988.917969 377.300781 989.78125 389.359375 C 990.667969 401.695312 991.289062 414.046875 992.125 426.382812 C 992.179688 427.234375 993.0625 428.027344 993.5625 428.84375 C 993.5625 440.855469 993.5625 452.867188 993.308594 465.03125 C 992.746094 465.558594 992.265625 465.886719 992.15625 466.308594 C 988.355469 481.28125 979.40625 492.363281 966.527344 500.554688 C 965.558594 501.171875 964.703125 502.390625 964.363281 503.5 C 961.765625 511.980469 957.496094 519.5 951.492188 525.984375 C 942.941406 535.222656 932.023438 540.386719 920.078125 543.503906 C 898.113281 549.234375 876.128906 554.886719 854.101562 560.378906 C 825.066406 567.617188 796.003906 574.761719 766.90625 581.765625 C 746.605469 586.652344 726.238281 591.257812 705.890625 595.945312 C 695.769531 598.273438 685.648438 600.605469 675.488281 602.742188 C 658.253906 606.367188 640.988281 609.851562 623.730469 613.367188 C 607.796875 616.609375 591.855469 619.832031 575.914062 623.027344 C 563.566406 625.496094 551.222656 627.960938 538.855469 630.328125 C 526.480469 632.703125 514.09375 635.003906 501.695312 637.246094 C 490.609375 639.253906 479.507812 641.171875 468.40625 643.066406 C 457.535156 644.921875 446.65625 646.707031 435.78125 648.511719 C 427.203125 649.9375 418.628906 651.378906 410.046875 652.746094 C 401.324219 654.128906 392.589844 655.421875 383.863281 656.765625 C 376.351562 657.917969 368.847656 659.121094 361.328125 660.234375 C 351.988281 661.613281 342.640625 662.953125 333.285156 664.25 C 325.378906 665.34375 317.457031 666.335938 309.542969 667.40625 C 300.785156 668.585938 292.039062 669.855469 283.277344 670.992188 C 276.566406 671.859375 269.832031 672.539062 263.117188 673.378906 C 255.808594 674.292969 248.519531 675.351562 241.207031 676.234375 C 236.078125 676.859375 230.917969 677.238281 225.785156 677.832031 C 217.730469 678.757812 209.695312 679.824219 201.640625 680.734375 C 196.253906 681.34375 190.847656 681.75 185.453125 682.3125 C 176.273438 683.265625 167.105469 684.304688 157.925781 685.238281 C 152.28125 685.8125 146.625 686.226562 140.988281 686.824219 C 140.488281 686.878906 140.078125 687.753906 139.625 688.25 M 544.792969 606.488281 C 545.886719 606.242188 546.980469 605.992188 548.078125 605.75 C 621.9375 589.460938 695.457031 571.757812 768.359375 551.625 C 825.003906 535.984375 881.421875 519.5 937.828125 503.011719 C 964.148438 495.320312 979.679688 472.015625 976.945312 445.527344 C 975.371094 430.25 973.734375 414.972656 971.605469 399.765625 C 964.761719 350.9375 958.195312 302.0625 950.554688 253.355469 C 940.378906 188.488281 927.828125 124.039062 913.992188 59.851562 C 908.511719 34.410156 885.890625 13.070312 857.332031 14.128906 C 842.730469 14.667969 828.09375 14.082031 813.484375 14.402344 C 737.046875 16.070312 660.613281 17.753906 584.183594 19.6875 C 559.835938 20.300781 535.496094 21.503906 511.171875 22.789062 C 473.257812 24.792969 435.351562 26.964844 397.453125 29.3125 C 371.652344 30.910156 345.863281 32.78125 320.089844 34.796875 C 294.816406 36.773438 269.5625 38.984375 244.316406 41.28125 C 219.941406 43.496094 195.574219 45.800781 171.230469 48.347656 C 145.277344 51.058594 119.339844 53.941406 93.433594 57.074219 C 83.058594 58.328125 72.449219 59.355469 62.53125 62.390625 C 33.890625 71.152344 13.152344 98.667969 12.925781 126.683594 C 12.484375 181.554688 14.367188 236.339844 18.75 291.046875 C 22.382812 336.375 27.695312 381.5 34.855469 426.398438 C 45.734375 494.632812 60.703125 561.964844 80 628.324219 C 82.535156 637.035156 86.867188 644.699219 93.226562 651.074219 C 111.914062 669.808594 134.941406 675.621094 160.578125 672.972656 C 171.625 671.828125 182.636719 670.289062 193.632812 668.703125 C 228.351562 663.6875 263.117188 658.972656 297.742188 653.378906 C 336.058594 647.1875 374.332031 640.640625 412.457031 633.351562 C 456.457031 624.941406 500.273438 615.542969 544.792969 606.488281 Z M 544.792969 606.488281 " fill-opacity="1" fill-rule="nonzero"/></g><g clip-path="url(#be2e739a67)"><path fill="#ffffff" d="M 139.976562 688.25 C 140.078125 687.753906 140.488281 686.878906 140.988281 686.824219 C 146.625 686.226562 152.28125 685.8125 157.925781 685.238281 C 167.105469 684.304688 176.273438 683.265625 185.453125 682.3125 C 190.847656 681.75 196.253906 681.34375 201.640625 680.734375 C 209.695312 679.824219 217.730469 678.757812 225.785156 677.832031 C 230.917969 677.238281 236.078125 676.859375 241.207031 676.234375 C 248.519531 675.351562 255.808594 674.292969 263.117188 673.378906 C 269.832031 672.539062 276.566406 671.859375 283.277344 670.992188 C 292.039062 669.855469 300.785156 668.585938 309.542969 667.40625 C 317.457031 666.335938 325.378906 665.34375 333.285156 664.25 C 342.640625 662.953125 351.988281 661.613281 361.328125 660.234375 C 368.847656 659.121094 376.351562 657.917969 383.863281 656.765625 C 392.589844 655.421875 401.324219 654.128906 410.046875 652.746094 C 418.628906 651.378906 427.203125 649.9375 435.78125 648.511719 C 446.65625 646.707031 457.535156 644.921875 468.40625 643.066406 C 479.507812 641.171875 490.609375 639.253906 501.695312 637.246094 C 514.09375 635.003906 526.480469 632.703125 538.855469 630.328125 C 551.222656 627.960938 563.566406 625.496094 575.914062 623.027344 C 591.855469 619.832031 607.796875 616.609375 623.730469 613.367188 C 640.988281 609.851562 658.253906 606.367188 675.488281 602.742188 C 685.648438 600.605469 695.769531 598.273438 705.890625 595.945312 C 726.238281 591.257812 746.605469 586.652344 766.90625 581.765625 C 796.003906 574.761719 825.066406 567.617188 854.101562 560.378906 C 876.128906 554.886719 898.113281 549.234375 920.078125 543.503906 C 932.023438 540.386719 942.941406 535.222656 951.492188 525.984375 C 957.496094 519.5 961.765625 511.980469 964.363281 503.5 C 964.703125 502.390625 965.558594 501.171875 966.527344 500.554688 C 979.40625 492.363281 988.355469 481.28125 992.15625 466.308594 C 992.265625 465.886719 992.746094 465.558594 993.308594 465.382812 C 993.5625 539.78125 993.5625 613.980469 993.5625 688.25 C 709.152344 688.25 424.738281 688.25 139.976562 688.25 Z M 139.976562 688.25 " fill-opacity="1" fill-rule="nonzero"/></g><g clip-path="url(#133646c1f6)"><path fill="#ffffff" d="M 993.5625 428.492188 C 993.0625 428.027344 992.179688 427.234375 992.125 426.382812 C 991.289062 414.046875 990.667969 401.695312 989.78125 389.359375 C 988.917969 377.300781 987.851562 365.253906 986.796875 353.210938 C 985.859375 342.535156 984.90625 331.863281 983.789062 321.207031 C 982.394531 307.871094 980.773438 294.558594 979.347656 281.226562 C 978.257812 271.0625 977.457031 260.867188 976.28125 250.710938 C 974.949219 239.246094 973.296875 227.820312 971.867188 216.363281 C 970.542969 205.753906 969.464844 195.109375 968.03125 184.511719 C 966.191406 170.910156 964.058594 157.351562 962.132812 143.761719 C 960.546875 132.578125 959.226562 121.359375 957.523438 110.195312 C 955.714844 98.328125 953.589844 86.511719 951.613281 74.671875 C 950.097656 65.617188 949.230469 56.398438 946.964844 47.539062 C 941.339844 25.535156 927.292969 11.0625 905.457031 4.816406 C 899.640625 3.152344 893.246094 3.332031 887.097656 3.058594 C 880.867188 2.785156 874.609375 3.074219 868.367188 2.980469 C 854.925781 2.785156 841.484375 2.511719 828.042969 2.210938 C 827.152344 2.191406 826.273438 1.664062 825.503906 1.0625 C 881.574219 0.75 937.523438 0.75 993.5625 0.75 C 993.5625 143.214844 993.5625 285.675781 993.5625 428.492188 Z M 993.5625 428.492188 " fill-opacity="1" fill-rule="nonzero"/></g><g clip-path="url(#79a1141478)"><path fill="#ffffff" d="M 0.925781 310.738281 C 1.421875 311.09375 2.328125 311.785156 2.359375 312.511719 C 2.707031 320.578125 2.714844 328.664062 3.21875 336.71875 C 4.027344 349.535156 5.144531 362.328125 6.132812 375.128906 C 6.644531 381.78125 7.074219 388.441406 7.691406 395.082031 C 8.597656 404.890625 9.640625 414.6875 10.625 424.488281 C 11.386719 432.085938 12.035156 439.699219 12.953125 447.277344 C 14.011719 456.039062 15.300781 464.773438 16.515625 473.515625 C 17.546875 480.929688 18.597656 488.34375 19.664062 495.757812 C 20.921875 504.496094 22.070312 513.253906 23.515625 521.964844 C 25.078125 531.375 26.839844 540.757812 28.675781 550.121094 C 31.566406 564.867188 34.449219 579.621094 37.601562 594.316406 C 40.933594 609.839844 44.605469 625.289062 48.0625 640.785156 C 51.460938 655.996094 60.929688 666.800781 73.328125 675.34375 C 81.992188 681.316406 91.683594 685.003906 102.0625 686.839844 C 102.480469 686.910156 102.828125 687.398438 103.046875 687.972656 C 68.921875 688.25 34.957031 688.25 0.925781 688.25 C 0.925781 562.53125 0.925781 436.808594 0.925781 310.738281 Z M 0.925781 310.738281 " fill-opacity="1" fill-rule="nonzero"/></g><g clip-path="url(#4a033d5582)"><path fill="#ffffff" d="M 523.132812 0.75 C 523.054688 1.242188 522.671875 2.097656 522.1875 2.160156 C 520.710938 2.355469 519.199219 2.230469 517.699219 2.25 C 500.257812 2.496094 482.8125 2.710938 465.375 3.015625 C 456.300781 3.171875 447.226562 3.457031 438.15625 3.757812 C 424.136719 4.222656 410.117188 4.71875 396.097656 5.257812 C 384.324219 5.710938 372.550781 6.238281 360.78125 6.75 C 349.632812 7.238281 338.480469 7.722656 327.332031 8.253906 C 317.558594 8.71875 307.78125 9.226562 298.007812 9.757812 C 289.355469 10.226562 280.703125 10.742188 272.054688 11.246094 C 259.207031 11.996094 246.359375 12.707031 233.515625 13.515625 C 222.664062 14.199219 211.816406 14.988281 200.96875 15.746094 C 190.367188 16.488281 179.761719 17.222656 169.164062 18.003906 C 159.433594 18.722656 149.707031 19.46875 139.984375 20.253906 C 127.929688 21.226562 115.878906 22.199219 103.835938 23.261719 C 93.28125 24.195312 82.640625 24.667969 72.210938 26.390625 C 57.058594 28.890625 43.4375 35.15625 32.035156 45.734375 C 21.152344 55.835938 13.0625 67.695312 9.707031 82.335938 C 8.617188 87.101562 7.871094 92.035156 7.761719 96.910156 C 7.519531 108.148438 5.976562 119.183594 3.695312 130.152344 C 3.449219 131.34375 3.230469 132.5625 3.191406 133.777344 C 2.90625 142.476562 2.691406 151.175781 2.386719 159.871094 C 2.359375 160.640625 1.84375 161.394531 1.238281 162.046875 C 0.925781 108.238281 0.925781 54.53125 0.925781 0.75 C 174.875 0.75 348.828125 0.75 523.132812 0.75 Z M 523.132812 0.75 " fill-opacity="1" fill-rule="nonzero"/></g><path fill="#2350a9" d="M 544.480469 606.53125 C 500.273438 615.542969 456.457031 624.941406 412.457031 633.351562 C 374.332031 640.640625 336.058594 647.1875 297.742188 653.378906 C 263.117188 658.972656 228.351562 663.6875 193.632812 668.703125 C 182.636719 670.289062 171.625 671.828125 160.578125 672.972656 C 134.941406 675.621094 111.914062 669.808594 93.226562 651.074219 C 86.867188 644.699219 82.535156 637.035156 80 628.324219 C 60.703125 561.964844 45.734375 494.632812 34.855469 426.398438 C 27.695312 381.5 22.382812 336.375 18.75 291.046875 C 14.367188 236.339844 12.484375 181.554688 12.925781 126.683594 C 13.152344 98.667969 33.890625 71.152344 62.53125 62.390625 C 72.449219 59.355469 83.058594 58.328125 93.433594 57.074219 C 119.339844 53.941406 145.277344 51.058594 171.230469 48.347656 C 195.574219 45.800781 219.941406 43.496094 244.316406 41.28125 C 269.5625 38.984375 294.816406 36.773438 320.089844 34.796875 C 345.863281 32.78125 371.652344 30.910156 397.453125 29.3125 C 435.351562 26.964844 473.257812 24.792969 511.171875 22.789062 C 535.496094 21.503906 559.835938 20.300781 584.183594 19.6875 C 660.613281 17.753906 737.046875 16.070312 813.484375 14.402344 C 828.09375 14.082031 842.730469 14.667969 857.332031 14.128906 C 885.890625 13.070312 908.511719 34.410156 913.992188 59.851562 C 927.828125 124.039062 940.378906 188.488281 950.554688 253.355469 C 958.195312 302.0625 964.761719 350.9375 971.605469 399.765625 C 973.734375 414.972656 975.371094 430.25 976.945312 445.527344 C 979.679688 472.015625 964.148438 495.320312 937.828125 503.011719 C 881.421875 519.5 825.003906 535.984375 768.359375 551.625 C 695.457031 571.757812 621.9375 589.460938 548.078125 605.75 C 546.980469 605.992188 545.886719 606.242188 544.480469 606.53125 M 513.429688 42.734375 C 508.847656 42.984375 504.269531 43.324219 499.683594 43.464844 C 489.605469 43.773438 479.523438 43.972656 469.441406 44.230469 C 459.988281 44.472656 450.53125 44.671875 441.078125 45 C 428.414062 45.4375 415.753906 45.949219 403.09375 46.484375 C 392.050781 46.945312 381.007812 47.445312 369.972656 47.992188 C 361.054688 48.4375 352.140625 48.941406 343.226562 49.480469 C 331.351562 50.195312 319.480469 51 307.601562 51.71875 C 298.5625 52.261719 289.519531 52.714844 280.480469 53.246094 C 276.773438 53.464844 273.0625 53.730469 269.363281 54.074219 C 259.152344 55.015625 248.949219 56.058594 238.734375 56.960938 C 231.832031 57.570312 224.894531 57.867188 218 58.554688 C 206.828125 59.667969 195.679688 61.039062 184.511719 62.207031 C 176.398438 63.058594 168.257812 63.636719 160.15625 64.5625 C 150.609375 65.652344 141.109375 67.171875 131.554688 68.164062 C 123.0625 69.046875 114.660156 70.175781 106.742188 73.523438 C 88.957031 81.039062 76.207031 93.34375 69.855469 111.953125 C 66.769531 120.996094 67.976562 130.367188 67.050781 139.558594 C 66.121094 148.820312 66.164062 158.207031 66.203125 167.535156 C 66.289062 187.363281 66.53125 207.191406 66.929688 227.015625 C 67.261719 243.679688 67.886719 260.339844 68.40625 277 C 68.628906 284.207031 68.863281 291.414062 69.171875 298.617188 C 69.355469 302.953125 69.617188 307.289062 69.972656 311.617188 C 70.910156 323.078125 71.933594 334.53125 72.894531 345.992188 C 73.441406 352.527344 73.816406 359.078125 74.488281 365.601562 C 75.339844 373.941406 76.453125 382.25 77.378906 390.582031 C 78.214844 398.0625 78.8125 405.570312 79.757812 413.039062 C 80.824219 421.460938 82.199219 429.84375 83.378906 438.253906 C 84.699219 447.652344 85.804688 457.082031 87.28125 466.453125 C 88.808594 476.160156 90.652344 485.816406 92.386719 495.492188 C 94.773438 508.804688 97.054688 522.132812 99.617188 535.410156 C 102.316406 549.398438 105.46875 563.300781 108.101562 577.296875 C 110.851562 591.898438 116.785156 604.503906 128.285156 614.414062 C 140.648438 625.070312 155.101562 629.738281 171.015625 630.410156 C 175.898438 630.617188 180.847656 629.605469 185.746094 629 C 193.699219 628.023438 201.648438 627.011719 209.578125 625.855469 C 218.828125 624.503906 228.042969 622.914062 237.292969 621.554688 C 248.265625 619.9375 259.277344 618.585938 270.234375 616.878906 C 283.484375 614.816406 296.6875 612.449219 309.925781 610.308594 C 322.933594 608.203125 335.976562 606.339844 348.96875 604.140625 C 364.121094 601.574219 379.222656 598.726562 394.359375 596.0625 C 410.472656 593.226562 426.617188 590.554688 442.714844 587.632812 C 456.871094 585.0625 470.984375 582.246094 485.113281 579.53125 C 501.054688 576.460938 517.015625 573.5 532.925781 570.28125 C 554.132812 565.984375 575.300781 561.488281 596.480469 557.066406 C 619.464844 552.273438 642.484375 547.632812 665.421875 542.621094 C 690.640625 537.113281 715.808594 531.347656 740.960938 525.53125 C 768.5 519.160156 796.003906 512.648438 823.5 506.105469 C 842.164062 501.660156 860.808594 497.15625 879.414062 492.484375 C 894.65625 488.65625 910.050781 485.230469 924.96875 480.375 C 943.164062 474.449219 953.460938 458.550781 953.539062 440.335938 C 953.582031 430.382812 951.03125 420.347656 949.054688 410.472656 C 944.351562 386.972656 939.488281 363.503906 934.328125 340.101562 C 928.378906 313.097656 922.128906 286.160156 915.839844 259.230469 C 912.960938 246.90625 909.773438 234.648438 906.554688 222.40625 C 901.082031 201.601562 895.542969 180.816406 889.898438 160.058594 C 886.320312 146.898438 882.550781 133.792969 878.765625 120.691406 C 875.519531 109.46875 872.597656 98.128906 868.714844 87.128906 C 860.398438 63.570312 838.917969 49.316406 814.6875 48.003906 C 803.53125 47.398438 792.363281 46.949219 781.199219 46.496094 C 767.910156 45.957031 754.621094 45.464844 741.332031 44.996094 C 733.003906 44.699219 724.671875 44.476562 716.339844 44.238281 C 707.132812 43.976562 697.929688 43.667969 688.71875 43.5 C 671.769531 43.199219 654.816406 42.8125 637.863281 42.769531 C 596.628906 42.664062 555.394531 42.734375 513.429688 42.734375 Z M 513.429688 42.734375 " fill-opacity="1" fill-rule="nonzero"/><path fill="#ffffff" d="M 513.796875 42.734375 C 555.394531 42.734375 596.628906 42.664062 637.863281 42.769531 C 654.816406 42.8125 671.769531 43.199219 688.71875 43.5 C 697.929688 43.667969 707.132812 43.976562 716.339844 44.238281 C 724.671875 44.476562 733.003906 44.699219 741.332031 44.996094 C 754.621094 45.464844 767.910156 45.957031 781.199219 46.496094 C 792.363281 46.949219 803.53125 47.398438 814.6875 48.003906 C 838.917969 49.316406 860.398438 63.570312 868.714844 87.128906 C 872.597656 98.128906 875.519531 109.46875 878.765625 120.691406 C 882.550781 133.792969 886.320312 146.898438 889.898438 160.058594 C 895.542969 180.816406 901.082031 201.601562 906.554688 222.40625 C 909.773438 234.648438 912.960938 246.90625 915.839844 259.230469 C 922.128906 286.160156 928.378906 313.097656 934.328125 340.101562 C 939.488281 363.503906 944.351562 386.972656 949.054688 410.472656 C 951.03125 420.347656 953.582031 430.382812 953.539062 440.335938 C 953.460938 458.550781 943.164062 474.449219 924.96875 480.375 C 910.050781 485.230469 894.65625 488.65625 879.414062 492.484375 C 860.808594 497.15625 842.164062 501.660156 823.5 506.105469 C 796.003906 512.648438 768.5 519.160156 740.960938 525.53125 C 715.808594 531.347656 690.640625 537.113281 665.421875 542.621094 C 642.484375 547.632812 619.464844 552.273438 596.480469 557.066406 C 575.300781 561.488281 554.132812 565.984375 532.925781 570.28125 C 517.015625 573.5 501.054688 576.460938 485.113281 579.53125 C 470.984375 582.246094 456.871094 585.0625 442.714844 587.632812 C 426.617188 590.554688 410.472656 593.226562 394.359375 596.0625 C 379.222656 598.726562 364.121094 601.574219 348.96875 604.140625 C 335.976562 606.339844 322.933594 608.203125 309.925781 610.308594 C 296.6875 612.449219 283.484375 614.816406 270.234375 616.878906 C 259.277344 618.585938 248.265625 619.9375 237.292969 621.554688 C 228.042969 622.914062 218.828125 624.503906 209.578125 625.855469 C 201.648438 627.011719 193.699219 628.023438 185.746094 629 C 180.847656 629.605469 175.898438 630.617188 171.015625 630.410156 C 155.101562 629.738281 140.648438 625.070312 128.285156 614.414062 C 116.785156 604.503906 110.851562 591.898438 108.101562 577.296875 C 105.46875 563.300781 102.316406 549.398438 99.617188 535.410156 C 97.054688 522.132812 94.773438 508.804688 92.386719 495.492188 C 90.652344 485.816406 88.808594 476.160156 87.28125 466.453125 C 85.804688 457.082031 84.699219 447.652344 83.378906 438.253906 C 82.199219 429.84375 80.824219 421.460938 79.757812 413.039062 C 78.8125 405.570312 78.214844 398.0625 77.378906 390.582031 C 76.453125 382.25 75.339844 373.941406 74.488281 365.601562 C 73.816406 359.078125 73.441406 352.527344 72.894531 345.992188 C 71.933594 334.53125 70.910156 323.078125 69.972656 311.617188 C 69.617188 307.289062 69.355469 302.953125 69.171875 298.617188 C 68.863281 291.414062 68.628906 284.207031 68.40625 277 C 67.886719 260.339844 67.261719 243.679688 66.929688 227.015625 C 66.53125 207.191406 66.289062 187.363281 66.203125 167.535156 C 66.164062 158.207031 66.121094 148.820312 67.050781 139.558594 C 67.976562 130.367188 66.769531 120.996094 69.855469 111.953125 C 76.207031 93.34375 88.957031 81.039062 106.742188 73.523438 C 114.660156 70.175781 123.0625 69.046875 131.554688 68.164062 C 141.109375 67.171875 150.609375 65.652344 160.15625 64.5625 C 168.257812 63.636719 176.398438 63.058594 184.511719 62.207031 C 195.679688 61.039062 206.828125 59.667969 218 58.554688 C 224.894531 57.867188 231.832031 57.570312 238.734375 56.960938 C 248.949219 56.058594 259.152344 55.015625 269.363281 54.074219 C 273.0625 53.730469 276.773438 53.464844 280.480469 53.246094 C 289.519531 52.714844 298.5625 52.261719 307.601562 51.71875 C 319.480469 51 331.351562 50.195312 343.226562 49.480469 C 352.140625 48.941406 361.054688 48.4375 369.972656 47.992188 C 381.007812 47.445312 392.050781 46.945312 403.09375 46.484375 C 415.753906 45.949219 428.414062 45.4375 441.078125 45 C 450.53125 44.671875 459.988281 44.472656 469.441406 44.230469 C 479.523438 43.972656 489.605469 43.773438 499.683594 43.464844 C 504.269531 43.324219 508.847656 42.984375 513.796875 42.734375 M 389.085938 455.859375 C 397.019531 454.804688 405.070312 454.273438 412.863281 452.578125 C 427.589844 449.375 441.71875 444.476562 454.800781 436.644531 C 464.460938 430.859375 471.378906 422.816406 476.175781 412.941406 C 482.960938 398.960938 484.542969 384.09375 482.25 368.804688 C 479.542969 350.753906 471.390625 336.394531 454.8125 327.339844 C 447.277344 323.226562 439.886719 318.671875 435.136719 310.960938 C 431.585938 305.1875 431.191406 298.875 435.1875 293.429688 C 439.703125 287.273438 445.359375 281.847656 449.21875 275.332031 C 460.085938 256.976562 463.566406 237.386719 455.917969 216.851562 C 450.554688 202.445312 441.261719 191.347656 427.140625 184.523438 C 416.117188 179.199219 404.3125 177.476562 392.375 177.089844 C 383.613281 176.804688 374.796875 177.773438 366.023438 178.460938 C 358.148438 179.074219 350.296875 180 342.449219 180.902344 C 335.109375 181.75 327.789062 182.789062 320.453125 183.671875 C 313.347656 184.53125 306.21875 185.242188 299.113281 186.117188 C 292.023438 186.992188 284.949219 188.003906 277.867188 188.929688 C 270.308594 189.914062 262.585938 190.265625 255.878906 194.527344 C 252.730469 196.527344 250.261719 198.917969 248.867188 202.714844 C 244.171875 215.496094 246.472656 228.386719 247.660156 241.285156 C 248.859375 254.316406 250.160156 267.335938 251.3125 280.371094 C 251.945312 287.523438 252.292969 294.703125 252.90625 301.855469 C 253.816406 312.4375 254.867188 323.007812 255.824219 333.589844 C 256.394531 339.871094 256.800781 346.171875 257.449219 352.445312 C 258.324219 360.910156 259.417969 369.351562 260.3125 377.8125 C 261.15625 385.800781 261.742188 393.816406 262.667969 401.792969 C 264.03125 413.539062 265.730469 425.25 267.042969 437.003906 C 268.957031 454.164062 276.710938 461.488281 293.820312 461.625 C 305.769531 461.71875 317.726562 459.75 329.695312 458.921875 C 336.882812 458.425781 344.097656 458.324219 351.300781 458.089844 C 359.753906 457.8125 368.210938 457.6875 376.65625 457.28125 C 380.582031 457.09375 384.484375 456.402344 389.085938 455.859375 M 524.726562 162.011719 C 523.714844 162.433594 522.667969 162.789062 521.691406 163.285156 C 507.816406 170.328125 495.875 179.8125 486.28125 192.074219 C 473.25 208.730469 465.667969 227.746094 464.417969 248.796875 C 463.386719 266.234375 464.289062 283.613281 469.296875 300.695312 C 474.171875 317.347656 481.957031 332.214844 493.425781 345.085938 C 502.90625 355.71875 514.261719 363.902344 527.371094 369.699219 C 545.515625 377.726562 564.335938 381.191406 584.082031 378.605469 C 600.507812 376.457031 616.445312 372.699219 631.144531 364.527344 C 648.25 355.023438 661.523438 341.855469 670.429688 324.46875 C 678.933594 307.867188 681.152344 289.707031 682.28125 271.457031 C 682.683594 264.972656 681.667969 258.363281 680.898438 251.859375 C 679.023438 235.972656 674.726562 220.835938 666.980469 206.6875 C 659.101562 192.3125 648.460938 180.632812 634.859375 171.539062 C 618.753906 160.777344 600.722656 155.417969 581.722656 153.867188 C 562.453125 152.292969 543.355469 153.9375 524.726562 162.011719 M 89.371094 318.234375 C 88.132812 325.003906 86.03125 331.746094 85.824219 338.542969 C 85.363281 353.792969 85.296875 369.054688 87.753906 384.265625 C 90.527344 401.425781 94.890625 417.898438 103.757812 433.039062 C 112.148438 447.367188 123.125 458.890625 138.269531 466 C 149.375 471.207031 161.21875 472.40625 173.074219 469.902344 C 179.105469 468.628906 184.882812 465.699219 190.480469 462.929688 C 197.992188 459.214844 205.453125 458.601562 213.394531 461.191406 C 221.5 463.832031 229.667969 466.027344 238.402344 464.117188 C 250.996094 461.359375 256.523438 452.015625 254.921875 439.757812 C 253.691406 430.347656 252.460938 420.9375 251.351562 411.511719 C 250.472656 404.027344 249.800781 396.523438 248.988281 389.035156 C 248.046875 380.328125 247 371.632812 246.101562 362.921875 C 245.484375 356.898438 245.082031 350.847656 244.507812 344.816406 C 243.566406 334.988281 242.472656 325.175781 241.617188 315.34375 C 240.960938 307.824219 240.597656 300.277344 240.054688 292.746094 C 239.085938 279.292969 237.894531 265.855469 237.160156 252.390625 C 236.753906 244.917969 237.0625 237.402344 237.09375 229.90625 C 237.132812 220.5625 235.941406 211.378906 232.523438 202.675781 C 229.457031 194.871094 226.851562 190.421875 216.5 191.1875 C 213.417969 191.414062 210.253906 191.347656 207.28125 192.058594 C 202.746094 193.144531 198.164062 193.796875 194.851562 198.214844 C 188.824219 206.246094 188.148438 215.253906 188.386719 224.640625 C 188.625 234.128906 189.507812 243.660156 188.867188 253.089844 C 188.445312 259.300781 185.972656 265.429688 178.894531 267.824219 C 174.550781 269.292969 170.152344 268.953125 165.878906 267.980469 C 156.421875 265.820312 146.941406 265.027344 137.398438 266.941406 C 120.78125 270.277344 108.261719 279.421875 99.464844 293.890625 C 94.941406 301.328125 91.71875 309.265625 89.371094 318.234375 M 846.570312 355.363281 C 841.945312 343.859375 826.726562 341.703125 818.222656 348.972656 C 814.207031 352.40625 810.636719 356.378906 806.992188 360.226562 C 799.421875 368.21875 790.183594 371.171875 779.527344 368.960938 C 763.851562 365.707031 754.679688 354.816406 749.304688 340.773438 C 743.199219 324.835938 742.203125 308.125 743.785156 291.125 C 744.90625 279.105469 748.425781 268.253906 756.160156 258.929688 C 761.976562 251.914062 769.691406 247.519531 778.613281 247.773438 C 783.9375 247.925781 789.339844 251.011719 794.394531 253.433594 C 801.019531 256.601562 807.054688 260.632812 814.628906 262.066406 C 821.179688 263.304688 833.160156 257.019531 835.554688 250.148438 C 839.199219 239.691406 836.777344 230.8125 829.371094 223.101562 C 822.160156 215.589844 813.207031 210.71875 803.640625 206.84375 C 787.171875 200.175781 770.128906 198.101562 752.796875 201.886719 C 734.320312 205.917969 719.261719 215.964844 707.699219 230.902344 C 692.273438 250.835938 685.695312 273.898438 684.699219 298.757812 C 684.03125 315.417969 685.453125 331.773438 690.476562 347.878906 C 696.367188 366.753906 704.1875 384.292969 718.820312 398.175781 C 731.300781 410.015625 746.289062 416.53125 763.140625 418.179688 C 775 419.339844 786.6875 418.015625 798.082031 413.28125 C 817.160156 405.351562 834.023438 395.144531 843.679688 375.921875 C 846.851562 369.609375 848.703125 363.078125 846.570312 355.363281 M 889.328125 269.738281 C 888.8125 264.328125 888.371094 258.914062 887.765625 253.515625 C 886.855469 245.433594 885.796875 237.371094 884.867188 229.292969 C 884.035156 222.066406 883.386719 214.816406 882.496094 207.59375 C 881.105469 196.359375 879.851562 185.09375 878.019531 173.925781 C 876.632812 165.460938 874.996094 156.953125 872.417969 148.796875 C 870.3125 142.148438 866.300781 136.320312 858.632812 134.613281 C 856.59375 134.15625 854.515625 133.570312 852.460938 133.59375 C 848.65625 133.628906 844.609375 133.328125 841.097656 134.488281 C 833.007812 137.167969 830.300781 143.699219 830.066406 151.828125 C 829.765625 162.074219 832.070312 171.910156 833.769531 181.894531 C 836.40625 197.417969 838.570312 213.035156 840.535156 228.660156 C 842.332031 242.976562 843.703125 257.347656 845.074219 271.714844 C 846.226562 283.777344 847.199219 295.855469 848.085938 307.941406 C 848.953125 319.796875 849.714844 331.660156 850.332031 343.53125 C 850.964844 355.679688 851.101562 367.859375 851.972656 379.988281 C 852.457031 386.75 854.582031 393.015625 861.59375 396.261719 C 866.195312 398.394531 870.863281 398.652344 875.628906 397.324219 C 883.699219 395.078125 890.644531 391.046875 893.550781 382.75 C 897.246094 372.21875 896.425781 361.128906 895.945312 350.25 C 895.5 340.15625 894.03125 330.109375 893.125 320.03125 C 892.710938 315.464844 892.648438 310.867188 892.289062 306.296875 C 891.347656 294.339844 890.332031 282.390625 889.328125 269.738281 Z M 889.328125 269.738281 " fill-opacity="1" fill-rule="nonzero"/><path fill="#2350a9" d="M 388.742188 455.902344 C 384.484375 456.402344 380.582031 457.09375 376.65625 457.28125 C 368.210938 457.6875 359.753906 457.8125 351.300781 458.089844 C 344.097656 458.324219 336.882812 458.425781 329.695312 458.921875 C 317.726562 459.75 305.769531 461.71875 293.820312 461.625 C 276.710938 461.488281 268.957031 454.164062 267.042969 437.003906 C 265.730469 425.25 264.03125 413.539062 262.667969 401.792969 C 261.742188 393.816406 261.15625 385.800781 260.3125 377.8125 C 259.417969 369.351562 258.324219 360.910156 257.449219 352.445312 C 256.800781 346.171875 256.394531 339.871094 255.824219 333.589844 C 254.867188 323.007812 253.816406 312.4375 252.90625 301.855469 C 252.292969 294.703125 251.945312 287.523438 251.3125 280.371094 C 250.160156 267.335938 248.859375 254.316406 247.660156 241.285156 C 246.472656 228.386719 244.171875 215.496094 248.867188 202.714844 C 250.261719 198.917969 252.730469 196.527344 255.878906 194.527344 C 262.585938 190.265625 270.308594 189.914062 277.867188 188.929688 C 284.949219 188.003906 292.023438 186.992188 299.113281 186.117188 C 306.21875 185.242188 313.347656 184.53125 320.453125 183.671875 C 327.789062 182.789062 335.109375 181.75 342.449219 180.902344 C 350.296875 180 358.148438 179.074219 366.023438 178.460938 C 374.796875 177.773438 383.613281 176.804688 392.375 177.089844 C 404.3125 177.476562 416.117188 179.199219 427.140625 184.523438 C 441.261719 191.347656 450.554688 202.445312 455.917969 216.851562 C 463.566406 237.386719 460.085938 256.976562 449.21875 275.332031 C 445.359375 281.847656 439.703125 287.273438 435.1875 293.429688 C 431.191406 298.875 431.585938 305.1875 435.136719 310.960938 C 439.886719 318.671875 447.277344 323.226562 454.8125 327.339844 C 471.390625 336.394531 479.542969 350.753906 482.25 368.804688 C 484.542969 384.09375 482.960938 398.960938 476.175781 412.941406 C 471.378906 422.816406 464.460938 430.859375 454.800781 436.644531 C 441.71875 444.476562 427.589844 449.375 412.863281 452.578125 C 405.070312 454.273438 397.019531 454.804688 388.742188 455.902344 M 313.617188 347.671875 C 309.460938 356.144531 307.894531 365.273438 307.664062 374.542969 C 307.449219 383.214844 309.011719 391.75 312.210938 399.875 C 316.460938 410.667969 323.484375 418.660156 335.542969 420.210938 C 341.972656 421.035156 348.605469 420.921875 355.097656 420.507812 C 365.320312 419.851562 375.570312 419.027344 385.679688 417.453125 C 395.371094 415.945312 404.671875 412.707031 411.960938 405.710938 C 422.140625 395.941406 427.714844 384.339844 426.105469 369.707031 C 424.785156 357.695312 419.480469 348.292969 409.96875 340.988281 C 399.648438 333.058594 387.421875 332.070312 375.210938 331.511719 C 369.207031 331.238281 363.117188 332.210938 357.101562 332.910156 C 347.570312 334.023438 338.027344 335.152344 328.558594 336.710938 C 322.136719 337.769531 317.421875 341.78125 313.617188 347.671875 M 302.660156 281.066406 C 309.289062 292.1875 319.042969 298.015625 332.027344 297.550781 C 339.039062 297.300781 346.015625 296.09375 353.019531 295.40625 C 364.367188 294.292969 375.4375 292.273438 385.636719 286.734375 C 404.777344 276.335938 411.304688 251.894531 398.859375 233.457031 C 390.835938 221.566406 378.367188 216.9375 364.914062 216.949219 C 350.886719 216.964844 336.828125 218.886719 322.855469 220.597656 C 315.507812 221.496094 309.179688 225.015625 304.433594 231.15625 C 297.949219 239.535156 296.976562 249.472656 297.371094 259.226562 C 297.664062 266.398438 300.613281 273.460938 302.660156 281.066406 Z M 302.660156 281.066406 " fill-opacity="1" fill-rule="nonzero"/><path fill="#2350a9" d="M 525.011719 161.933594 C 543.355469 153.9375 562.453125 152.292969 581.722656 153.867188 C 600.722656 155.417969 618.753906 160.777344 634.859375 171.539062 C 648.460938 180.632812 659.101562 192.3125 666.980469 206.6875 C 674.726562 220.835938 679.023438 235.972656 680.898438 251.859375 C 681.667969 258.363281 682.683594 264.972656 682.28125 271.457031 C 681.152344 289.707031 678.933594 307.867188 670.429688 324.46875 C 661.523438 341.855469 648.25 355.023438 631.144531 364.527344 C 616.445312 372.699219 600.507812 376.457031 584.082031 378.605469 C 564.335938 381.191406 545.515625 377.726562 527.371094 369.699219 C 514.261719 363.902344 502.90625 355.71875 493.425781 345.085938 C 481.957031 332.214844 474.171875 317.347656 469.296875 300.695312 C 464.289062 283.613281 463.386719 266.234375 464.417969 248.796875 C 465.667969 227.746094 473.25 208.730469 486.28125 192.074219 C 495.875 179.8125 507.816406 170.328125 521.691406 163.285156 C 522.667969 162.789062 523.714844 162.433594 525.011719 161.933594 M 547.882812 204.648438 C 537.210938 211.464844 530.492188 221.261719 526.445312 233.070312 C 522.925781 243.34375 521.972656 253.851562 522.628906 264.707031 C 523.359375 276.804688 525.875 288.316406 530.996094 299.300781 C 537.269531 312.753906 546.515625 323.296875 560.222656 329.496094 C 566.582031 332.371094 573.34375 334.886719 580.285156 333.433594 C 594.949219 330.359375 607.25 323.015625 615.679688 310.316406 C 626.164062 294.523438 628.445312 276.992188 626.332031 258.460938 C 624.597656 243.277344 619.867188 229.328125 610.359375 217.347656 C 601.007812 205.558594 588.597656 199 573.480469 197.945312 C 564.425781 197.316406 556.273438 200.496094 547.882812 204.648438 Z M 547.882812 204.648438 " fill-opacity="1" fill-rule="nonzero"/><path fill="#2350a9" d="M 89.390625 317.925781 C 91.71875 309.265625 94.941406 301.328125 99.464844 293.890625 C 108.261719 279.421875 120.78125 270.277344 137.398438 266.941406 C 146.941406 265.027344 156.421875 265.820312 165.878906 267.980469 C 170.152344 268.953125 174.550781 269.292969 178.894531 267.824219 C 185.972656 265.429688 188.445312 259.300781 188.867188 253.089844 C 189.507812 243.660156 188.625 234.128906 188.386719 224.640625 C 188.148438 215.253906 188.824219 206.246094 194.851562 198.214844 C 198.164062 193.796875 202.746094 193.144531 207.28125 192.058594 C 210.253906 191.347656 213.417969 191.414062 216.5 191.1875 C 226.851562 190.421875 229.457031 194.871094 232.523438 202.675781 C 235.941406 211.378906 237.132812 220.5625 237.09375 229.90625 C 237.0625 237.402344 236.753906 244.917969 237.160156 252.390625 C 237.894531 265.855469 239.085938 279.292969 240.054688 292.746094 C 240.597656 300.277344 240.960938 307.824219 241.617188 315.34375 C 242.472656 325.175781 243.566406 334.988281 244.507812 344.816406 C 245.082031 350.847656 245.484375 356.898438 246.101562 362.921875 C 247 371.632812 248.046875 380.328125 248.988281 389.035156 C 249.800781 396.523438 250.472656 404.027344 251.351562 411.511719 C 252.460938 420.9375 253.691406 430.347656 254.921875 439.757812 C 256.523438 452.015625 250.996094 461.359375 238.402344 464.117188 C 229.667969 466.027344 221.5 463.832031 213.394531 461.191406 C 205.453125 458.601562 197.992188 459.214844 190.480469 462.929688 C 184.882812 465.699219 179.105469 468.628906 173.074219 469.902344 C 161.21875 472.40625 149.375 471.207031 138.269531 466 C 123.125 458.890625 112.148438 447.367188 103.757812 433.039062 C 94.890625 417.898438 90.527344 401.425781 87.753906 384.265625 C 85.296875 369.054688 85.363281 353.792969 85.824219 338.542969 C 86.03125 331.746094 88.132812 325.003906 89.390625 317.925781 M 125.460938 338.765625 C 124.933594 343.675781 124.074219 348.582031 123.941406 353.503906 C 123.566406 367.789062 124.957031 381.972656 129.289062 395.59375 C 133.296875 408.195312 139.304688 419.847656 150.398438 427.933594 C 155.214844 431.441406 160.664062 434.671875 166.65625 433.886719 C 175.871094 432.6875 183.570312 428.09375 189.183594 420.375 C 196.691406 410.050781 198.707031 398.011719 199.472656 385.804688 C 200.117188 375.550781 199.609375 365.289062 197.476562 355.074219 C 195.117188 343.75 193.441406 332.324219 187.160156 322.257812 C 182.015625 314.007812 175.921875 307.015625 166.085938 304.105469 C 154.851562 300.777344 142.75 304.828125 135.371094 314.101562 C 129.695312 321.246094 127.390625 329.523438 125.460938 338.765625 Z M 125.460938 338.765625 " fill-opacity="1" fill-rule="nonzero"/><path fill="#2350a9" d="M 846.609375 355.671875 C 848.703125 363.078125 846.851562 369.609375 843.679688 375.921875 C 834.023438 395.144531 817.160156 405.351562 798.082031 413.28125 C 786.6875 418.015625 775 419.339844 763.140625 418.179688 C 746.289062 416.53125 731.300781 410.015625 718.820312 398.175781 C 704.1875 384.292969 696.367188 366.753906 690.476562 347.878906 C 685.453125 331.773438 684.03125 315.417969 684.699219 298.757812 C 685.695312 273.898438 692.273438 250.835938 707.699219 230.902344 C 719.261719 215.964844 734.320312 205.917969 752.796875 201.886719 C 770.128906 198.101562 787.171875 200.175781 803.640625 206.84375 C 813.207031 210.71875 822.160156 215.589844 829.371094 223.101562 C 836.777344 230.8125 839.199219 239.691406 835.554688 250.148438 C 833.160156 257.019531 821.179688 263.304688 814.628906 262.066406 C 807.054688 260.632812 801.019531 256.601562 794.394531 253.433594 C 789.339844 251.011719 783.9375 247.925781 778.613281 247.773438 C 769.691406 247.519531 761.976562 251.914062 756.160156 258.929688 C 748.425781 268.253906 744.90625 279.105469 743.785156 291.125 C 742.203125 308.125 743.199219 324.835938 749.304688 340.773438 C 754.679688 354.816406 763.851562 365.707031 779.527344 368.960938 C 790.183594 371.171875 799.421875 368.21875 806.992188 360.226562 C 810.636719 356.378906 814.207031 352.40625 818.222656 348.972656 C 826.726562 341.703125 841.945312 343.859375 846.609375 355.671875 Z M 846.609375 355.671875 " fill-opacity="1" fill-rule="nonzero"/><path fill="#2350a9" d="M 889.335938 270.089844 C 890.332031 282.390625 891.347656 294.339844 892.289062 306.296875 C 892.648438 310.867188 892.710938 315.464844 893.125 320.03125 C 894.03125 330.109375 895.5 340.15625 895.945312 350.25 C 896.425781 361.128906 897.246094 372.21875 893.550781 382.75 C 890.644531 391.046875 883.699219 395.078125 875.628906 397.324219 C 870.863281 398.652344 866.195312 398.394531 861.59375 396.261719 C 854.582031 393.015625 852.457031 386.75 851.972656 379.988281 C 851.101562 367.859375 850.964844 355.679688 850.332031 343.53125 C 849.714844 331.660156 848.953125 319.796875 848.085938 307.941406 C 847.199219 295.855469 846.226562 283.777344 845.074219 271.714844 C 843.703125 257.347656 842.332031 242.976562 840.535156 228.660156 C 838.570312 213.035156 836.40625 197.417969 833.769531 181.894531 C 832.070312 171.910156 829.765625 162.074219 830.066406 151.828125 C 830.300781 143.699219 833.007812 137.167969 841.097656 134.488281 C 844.609375 133.328125 848.65625 133.628906 852.460938 133.59375 C 854.515625 133.570312 856.59375 134.15625 858.632812 134.613281 C 866.300781 136.320312 870.3125 142.148438 872.417969 148.796875 C 874.996094 156.953125 876.632812 165.460938 878.019531 173.925781 C 879.851562 185.09375 881.105469 196.359375 882.496094 207.59375 C 883.386719 214.816406 884.035156 222.066406 884.867188 229.292969 C 885.796875 237.371094 886.855469 245.433594 887.765625 253.515625 C 888.371094 258.914062 888.8125 264.328125 889.335938 270.089844 Z M 889.335938 270.089844 " fill-opacity="1" fill-rule="nonzero"/><path fill="#ffffff" d="M 313.753906 347.425781 C 317.421875 341.78125 322.136719 337.769531 328.558594 336.710938 C 338.027344 335.152344 347.570312 334.023438 357.101562 332.910156 C 363.117188 332.210938 369.207031 331.238281 375.210938 331.511719 C 387.421875 332.070312 399.648438 333.058594 409.96875 340.988281 C 419.480469 348.292969 424.785156 357.695312 426.105469 369.707031 C 427.714844 384.339844 422.140625 395.941406 411.960938 405.710938 C 404.671875 412.707031 395.371094 415.945312 385.679688 417.453125 C 375.570312 419.027344 365.320312 419.851562 355.097656 420.507812 C 348.605469 420.921875 341.972656 421.035156 335.542969 420.210938 C 323.484375 418.660156 316.460938 410.667969 312.210938 399.875 C 309.011719 391.75 307.449219 383.214844 307.664062 374.542969 C 307.894531 365.273438 309.460938 356.144531 313.753906 347.425781 Z M 313.753906 347.425781 " fill-opacity="1" fill-rule="nonzero"/><path fill="#ffffff" d="M 302.515625 280.820312 C 300.613281 273.460938 297.664062 266.398438 297.371094 259.226562 C 296.976562 249.472656 297.949219 239.535156 304.433594 231.15625 C 309.179688 225.015625 315.507812 221.496094 322.855469 220.597656 C 336.828125 218.886719 350.886719 216.964844 364.914062 216.949219 C 378.367188 216.9375 390.835938 221.566406 398.859375 233.457031 C 411.304688 251.894531 404.777344 276.335938 385.636719 286.734375 C 375.4375 292.273438 364.367188 294.292969 353.019531 295.40625 C 346.015625 296.09375 339.039062 297.300781 332.027344 297.550781 C 319.042969 298.015625 309.289062 292.1875 302.515625 280.820312 Z M 302.515625 280.820312 " fill-opacity="1" fill-rule="nonzero"/><path fill="#ffffff" d="M 548.089844 204.460938 C 556.273438 200.496094 564.425781 197.316406 573.480469 197.945312 C 588.597656 199 601.007812 205.558594 610.359375 217.347656 C 619.867188 229.328125 624.597656 243.277344 626.332031 258.460938 C 628.445312 276.992188 626.164062 294.523438 615.679688 310.316406 C 607.25 323.015625 594.949219 330.359375 580.285156 333.433594 C 573.34375 334.886719 566.582031 332.371094 560.222656 329.496094 C 546.515625 323.296875 537.269531 312.753906 530.996094 299.300781 C 525.875 288.316406 523.359375 276.804688 522.628906 264.707031 C 521.972656 253.851562 522.925781 243.34375 526.445312 233.070312 C 530.492188 221.261719 537.210938 211.464844 548.089844 204.460938 Z M 548.089844 204.460938 " fill-opacity="1" fill-rule="nonzero"/><path fill="#ffffff" d="M 125.578125 338.457031 C 127.390625 329.523438 129.695312 321.246094 135.371094 314.101562 C 142.75 304.828125 154.851562 300.777344 166.085938 304.105469 C 175.921875 307.015625 182.015625 314.007812 187.160156 322.257812 C 193.441406 332.324219 195.117188 343.75 197.476562 355.074219 C 199.609375 365.289062 200.117188 375.550781 199.472656 385.804688 C 198.707031 398.011719 196.691406 410.050781 189.183594 420.375 C 183.570312 428.09375 175.871094 432.6875 166.65625 433.886719 C 160.664062 434.671875 155.214844 431.441406 150.398438 427.933594 C 139.304688 419.847656 133.296875 408.195312 129.289062 395.59375 C 124.957031 381.972656 123.566406 367.789062 123.941406 353.503906 C 124.074219 348.582031 124.933594 343.675781 125.578125 338.457031 Z M 125.578125 338.457031 " fill-opacity="1" fill-rule="nonzero"/></svg>